<mxfile host="65bd71144e">
    <diagram id="EtC9MD6xMV0eD-Kr7Enh" name="第 1 页">
        <mxGraphModel dx="1704" dy="536" grid="1" gridSize="10" guides="1" tooltips="1" connect="1" arrows="1" fold="1" page="1" pageScale="1" pageWidth="827" pageHeight="1169" background="#ffffff" math="0" shadow="0">
            <root>
                <mxCell id="0"/>
                <mxCell id="1" parent="0"/>
                <mxCell id="42" value="布局&lt;br&gt;（layout)" style="rounded=1;whiteSpace=wrap;html=1;strokeColor=#FFCC99;fontColor=#000000;fillColor=#FFE6CC;" parent="1" vertex="1">
                    <mxGeometry x="270" y="220" width="120" height="60" as="geometry"/>
                </mxCell>
                <mxCell id="45" value="" style="shape=flexArrow;endArrow=classic;html=1;strokeColor=#FFCC99;fontColor=#000000;curved=1;fillColor=#FFE6CC;" parent="1" edge="1">
                    <mxGeometry width="50" height="50" relative="1" as="geometry">
                        <mxPoint x="415" y="249.5" as="sourcePoint"/>
                        <mxPoint x="465" y="250" as="targetPoint"/>
                    </mxGeometry>
                </mxCell>
                <mxCell id="46" value="" style="shape=flexArrow;endArrow=classic;html=1;strokeColor=#FFCC99;fontColor=#000000;curved=1;fillColor=#FFE6CC;" parent="1" edge="1">
                    <mxGeometry width="50" height="50" relative="1" as="geometry">
                        <mxPoint x="194" y="249.5" as="sourcePoint"/>
                        <mxPoint x="244" y="250" as="targetPoint"/>
                    </mxGeometry>
                </mxCell>
                <mxCell id="95" value="" style="group" parent="1" vertex="1" connectable="0">
                    <mxGeometry x="-70" y="130" width="230" height="343.65" as="geometry"/>
                </mxCell>
                <mxCell id="2" value="Layout Tree" style="rounded=1;whiteSpace=wrap;html=1;fillColor=#CCCCFF;fontColor=#000000;strokeColor=#9999FF;container=0;" parent="95" vertex="1">
                    <mxGeometry x="70" width="70" height="42.08333333333333" as="geometry"/>
                </mxCell>
                <mxCell id="3" value="" style="rounded=1;whiteSpace=wrap;html=1;fillColor=#CCCCFF;fontColor=#000000;strokeColor=#9999FF;container=0;" parent="95" vertex="1">
                    <mxGeometry x="50" y="73.64583333333333" width="40" height="42.08333333333333" as="geometry"/>
                </mxCell>
                <mxCell id="8" style="edgeStyle=orthogonalEdgeStyle;html=1;entryX=0.5;entryY=0;entryDx=0;entryDy=0;strokeColor=#000000;fontColor=#000000;exitX=0.5;exitY=1;exitDx=0;exitDy=0;curved=1;endArrow=none;endFill=0;" parent="95" source="2" target="3" edge="1">
                    <mxGeometry relative="1" as="geometry"/>
                </mxCell>
                <mxCell id="4" value="" style="rounded=1;whiteSpace=wrap;html=1;fillColor=#CCCCFF;fontColor=#000000;strokeColor=#9999FF;container=0;" parent="95" vertex="1">
                    <mxGeometry x="130" y="73.64583333333333" width="40" height="42.08333333333333" as="geometry"/>
                </mxCell>
                <mxCell id="9" style="edgeStyle=orthogonalEdgeStyle;curved=1;html=1;entryX=0.5;entryY=0;entryDx=0;entryDy=0;strokeColor=#000000;fontColor=#000000;endArrow=none;endFill=0;" parent="95" source="2" target="4" edge="1">
                    <mxGeometry relative="1" as="geometry"/>
                </mxCell>
                <mxCell id="10" style="edgeStyle=orthogonalEdgeStyle;curved=1;html=1;entryX=0.5;entryY=0;entryDx=0;entryDy=0;strokeColor=#000000;fontColor=#000000;endArrow=none;endFill=0;" parent="95" source="3" target="5" edge="1">
                    <mxGeometry relative="1" as="geometry"/>
                </mxCell>
                <mxCell id="6" value="" style="rounded=1;whiteSpace=wrap;html=1;fillColor=#CCCCFF;fontColor=#000000;strokeColor=#9999FF;container=0;" parent="95" vertex="1">
                    <mxGeometry y="210.41666666666666" width="40" height="42.08333333333333" as="geometry"/>
                </mxCell>
                <mxCell id="11" style="edgeStyle=orthogonalEdgeStyle;curved=1;html=1;entryX=0.5;entryY=0;entryDx=0;entryDy=0;strokeColor=#000000;fontColor=#000000;endArrow=none;endFill=0;startArrow=none;exitX=0.5;exitY=1;exitDx=0;exitDy=0;" parent="95" source="5" target="6" edge="1">
                    <mxGeometry relative="1" as="geometry"/>
                </mxCell>
                <mxCell id="12" value="" style="rounded=1;whiteSpace=wrap;html=1;fillColor=#CCCCFF;fontColor=#000000;strokeColor=#9999FF;container=0;" parent="95" vertex="1">
                    <mxGeometry x="160" y="136.77083333333331" width="40" height="42.08333333333333" as="geometry"/>
                </mxCell>
                <mxCell id="13" style="edgeStyle=orthogonalEdgeStyle;curved=1;html=1;entryX=0.5;entryY=0;entryDx=0;entryDy=0;strokeColor=#000000;fontColor=#000000;endArrow=none;endFill=0;exitX=0.5;exitY=1;exitDx=0;exitDy=0;" parent="95" source="4" target="12" edge="1">
                    <mxGeometry relative="1" as="geometry"/>
                </mxCell>
                <mxCell id="70" value="" style="edgeStyle=orthogonalEdgeStyle;curved=1;html=1;entryX=0.5;entryY=0;entryDx=0;entryDy=0;strokeColor=#000000;fontColor=#000000;endArrow=none;endFill=0;" parent="95" source="3" target="5" edge="1">
                    <mxGeometry relative="1" as="geometry">
                        <mxPoint x="70" y="115.72916666666666" as="sourcePoint"/>
                        <mxPoint x="70" y="210.41666666666666" as="targetPoint"/>
                    </mxGeometry>
                </mxCell>
                <mxCell id="5" value="" style="rounded=1;whiteSpace=wrap;html=1;fillColor=#CCCCFF;fontColor=#000000;strokeColor=#9999FF;container=0;" parent="95" vertex="1">
                    <mxGeometry x="50" y="136.77083333333331" width="40" height="42.08333333333333" as="geometry"/>
                </mxCell>
                <mxCell id="71" value="" style="rounded=1;whiteSpace=wrap;html=1;fillColor=#CCCCFF;fontColor=#000000;strokeColor=#9999FF;container=0;" parent="95" vertex="1">
                    <mxGeometry x="85" y="210.41666666666666" width="40" height="42.08333333333333" as="geometry"/>
                </mxCell>
                <mxCell id="73" style="edgeStyle=orthogonalEdgeStyle;html=1;entryX=0.5;entryY=0;entryDx=0;entryDy=0;strokeColor=#000000;exitX=0.5;exitY=1;exitDx=0;exitDy=0;curved=1;endArrow=none;endFill=0;" parent="95" source="5" target="71" edge="1">
                    <mxGeometry relative="1" as="geometry"/>
                </mxCell>
                <mxCell id="74" value="" style="rounded=1;whiteSpace=wrap;html=1;fillColor=#CCCCFF;fontColor=#000000;strokeColor=#9999FF;container=0;" parent="95" vertex="1">
                    <mxGeometry x="110" y="136.77083333333331" width="40" height="42.08333333333333" as="geometry"/>
                </mxCell>
                <mxCell id="75" style="edgeStyle=orthogonalEdgeStyle;curved=1;html=1;strokeColor=#000000;endArrow=none;endFill=0;entryX=0.5;entryY=0;entryDx=0;entryDy=0;" parent="95" source="4" target="74" edge="1">
                    <mxGeometry relative="1" as="geometry">
                        <mxPoint x="140" y="168.33333333333331" as="targetPoint"/>
                    </mxGeometry>
                </mxCell>
                <mxCell id="96" value="" style="rounded=0;whiteSpace=wrap;html=1;fillColor=none;strokeColor=#000000;" parent="95" vertex="1">
                    <mxGeometry x="-20" y="-17.5" width="250" height="277.5" as="geometry"/>
                </mxCell>
                <mxCell id="98" value="" style="shape=image;verticalLabelPosition=bottom;labelBackgroundColor=default;verticalAlign=top;aspect=fixed;imageAspect=0;image=data:image/png,iVBORw0KGgoAAAANSUhEUgAAAZoAAAE4CAYAAABi0jWGAAAAAXNSR0IArs4c6QAAAARnQU1BAACxjwv8YQUAAAAJcEhZcwAADsMAAA7DAcdvqGQAAH6ZSURBVHhe7b0HfF3Hded/QLCTYO8AOwn2XkRSvViyii3JTXZsOXJLsnY2m3zilP07G683ycbx+u+snbjFVqxuWZLVKUoiRYpVpNg7AaKRYCdBEuwU2873vDcPF4+vAQ8PwAPO1756D3z33Ll37sz5zZmZOzfnmkMMwzAMI0O0CX8ahmEYRkYwoTEMwzAyigmNYRiGkVFMaAzDMIyMYkJjGIZhZBQTGsMwDCOjmNAYhmEYGcWExjAMw8goJjSGYRhGRjGhMQzDMDKKCY1hGIaRUUxoDMMwjIxiQmMYhmFkFBMawzAMI6OY0BiGYRgZxYTGMAzDyCgmNIZhGEZGMaExDMMwMooJjWEYhpFRTGgMwzCMjGJCYxiGYWQUExrDMAwjo5jQGIZhGBnFhMYwDMPIKCY0hmEYRkYxoTEMwzAyigmNYRiGkVFMaAzDMIyMYkJjGIZhZBQTGsMwDCOjmNAYhmEYGcWExjAMw8goJjSGYRhGRjGhMQzDMDKKCY1hGIaRUUxoDMMwjIxiQmMYhmFkFBMawzAMI6OY0BiGYRgZxYTGMAzDyCgmNIZhGEZGMaExDMMwMooJjWEYhpFRcq45wt+zjg8//DD8zUiV2bNnh78ZhmE0DlkrNI899pi8//774b+MVOnSpYvMmjVLvvWtb+mnYRhGpslaoXnxxRflhz/8YSSq+eY3v2mt9RQgv5588knp06eP3HbbbSY4hmFknKwVmrNnz8rRo0c1qvnZz34mFRUV2lpHcNiM2Jw7d06OHDkia9euVcEh3xAc8swExzCMTJDVYzQQS3D69eunTtOcZ3yC+WaCYxhGJsl6ofHgOGmp84ngPPXUUyo4OM//8l/+iznPOPh8Q3DIsz179mhkSJ5ZZGgYRkPQYoQmCI7Tdw9552mCk5ig4Pz85z/XPPORoeWbYRjp0CKFxoPzPHz4sDrPp59+Wvbu3auC8yd/8ifmOOMQzLN169apUPfv39/yzTCMetOihcYTS3B89xCbcT3kmc83IkMTasMw6kurEBpPUHB+8YtfqOOktT5z5kwVHD6N64kl1L4r0vLMMIxktCqh8XjHeebMGR2PeOaZZ2pNHDDnGZt4guOF2jAMIxatUmiC4DgPHTqk4xEITmVlZaR7yAQnNgi0FxzybOfOnTJgwADNL8s3wzCiafVC44l2niY4yQnmmRfq4MQByzfDMMCEJopYgtO1a1d1nGzG9ZBndKsRGTL2tWvXLhNqwzAimNDEAeeJ40RwfvnLX8q+ffsi3UN//Md/bM4zDuQZeUe+Pfvss5pvCI7lmWG0XkxokhAUHLqHcJ4IjjnPxATzzQTHMFo3JjQpguNkO3jwoArOc889J/v371fn+Ud/9EfmPOPg8wzB8XlGVySCM2PGDMs3w2gFmNDUg1jO0wQnMcE8+4//+A+NcPLy8izfDKMVYEKTBvEEh5Y6LXbjenyenT59Wse+fvvb39bqiiTvDMNoWZjQNADRglNUVCQDBw6MCI45z9iQZ2zr16+vJdSWZ4bRsjChaUBopXvBoXuouLhYBcd3D5nzjE0w34hwDhw4YHlmGC0IE5oM4B0nn15wzHkmJ5bgMI5DnrEZhpGdtFih4UFBumR4Ur13796yY8cO6Z3XSarPX5LOnTtrpHHq2CGZPbhr2ELktU37w98aDpwlDpQNpzlo0CD9NGKDCH/+85/X+4Pg/OpXv1LxId/47Rvf+IYJtWFkGS1WaG6//XZ1VO3bt5eJBb2k+9Bxcvddd0qnLl3lruJ/kxWT/0pOVB2Tk0cOSM+uHeWe4R3k8OmL0i7HCc7u83L+o8vhIzU8GzZsUBEEnOb06dP1e2uHfCH6Q1SI/kaPHi0PPPBAJDJ8/vnnI7+Z4BhG9tBihYZlUBCaX//617Jz6yZp3zlPbrjhBikoKJB//tYX5ESXwbJ582YVpKNHDku3tldkUH6+5FzYJtI2X+TcManOyZezV3PDR2w4Tp06FTk3HCsRjnecrdl5+nxBcBAV8iXf3RPy5L777tPZaQj07373O30YFMH5+te/boJjGM2cFj1GQ0uYmUwRwdm5UyOcOXPmaHfaXXfdJefOnZPPfe5z0qdPn7DVJbe1cxvdaAPddl4EsWnT0X1vOKLPje6hbt26tXrn6bsZyRtExYsxgkPePPLIIyo45JsJjmFkB61iMoB3XLSY6fPnXSrt2rWTvn37So8ePXQ8hwcI7733Xn1qne+j8/vIRzntZOSBxXKl+yC53LGXnG2XJwcvdggftWHgnDg3zhGnunv37lrdQ60ZnzdejBFinzc/+MEPIr95weF3BKe155thNDdahdAEwTmx0T2D89q6davw0rPz589rlJObmysXLlyQjh07Sk6OSIcLJySnnROX3HZyRdrIxattwkdqeJg4gHMF71SNmoaCh7xZsmSJjm3537wYIThEP/yG4Nj4l2E0Pa1OaDy+tcwnotNcwXn686O1bo4zxBe/+EUVHE/wfpJnL7zwQqS7zfLNMJqWVis0QXwU0RwJttZ5T47vHmJrzQRFJhryjO5PBBrBId9McAyj6TChyQIQQhwngvP444/LkSNHdPYcTvNrX/uaOc84BPPtxRdf1HxDcCzPDKNxMaHJIrzj9N1DOE8Ex5xnYmIJDhERedbaI0PDaAxMaLIUHCevS6Z76KWXXpKjR4+q4Hz1q181wYkDgkOeITj/+Z//qYIzePBgzS/LN8PIHCY0TcS8efPC39LDO08+aaXjOBONXxi18wzqmm8mTIZRN0xomoCNGzde56Qa2mkFZ9KZQ0ydVPKttLS0VpfltGnTwr8YhhELE5omgJb0tm3bdGCfLhzo3r27OqyGain77iEcZ0MfO1OwasPly5lbYy4V/IQLViVgeaJYY1/V1dVCteEBXy845C/7GoZxPSY0TQjdN3v37tUIB1EoKyvTLhw/1pJOSxlnyPH55Ni///3vG+zYLRkaAdwTBIc8q6qqkltvvVXF5itf+Up4rxArV67UTwTy05/+tAwZMiQi6Ja/hlGDCU0zwIuCj0IaUnAgKGg4z2PHjpngJCF4T8gzusviCcmVK1dk9erV+v3+++83QTeMKExomhE4N9+a/s1vfqOCg3PDadGaTtdpBY//8ssva2u9oY7dUqnrPVmxYoV+8nqDhrx3hpHNmNA0Q+I5N8ZacFq0lNMhnuBMnTo17WO3VHye8envSSKh9oLzyU9+MjKOY4JjtFZMaJoxOLU9e/ZEnBsbgjN06FB1WI899lhajssfH8F55ZVX1Hk21LFbMgjOyZMnI/l2/PhxFZJYebZ8+XL9/NGPfqT5G28/w2jJmNBkCTg3RIFxlieeeCIiCg3huIKCs2nTJo1yGurYLZlooU4kOLyIj4dqmVX353/+55HolCjS8tdo6ZjQZBlB55YJwfHHR9CSOc+WAIP8vJOI9xPxRs8c3g3hQBDatGmjG/tcvHhRxYFXSACvcOjUqZN+jyU48YTko48+kjVr1uj3L33pS5q2CbrR0jGhyVKiBae8vLzW4DMOLh1iOc+GOnZz4uzZsyoyCMiCBQtk4sSJeq3kJW9dZZkafmNmGfkxYsQIteOtn+PGjdNXESxdulSfqTlx4kRkTTW6OfkbwYknJMuWLdPPBx98sEHvnWE0N0xospxEgoPDwnGlQzzBaYhjNycQEl6nTZTCw5qMrfzlX/6lPrw5atQo3YeXrHXu3FlflMdgP4P8RDo8fDtlyhR93qakpERfoNe2bVsdx+GeJOuKNMExWjomNC0EnJoXBMZZXn31VW1NDxs2TB0WDi4dxxU8PsdG0Di2P25LcYpXr17VhzZ5pw0Cg+ggLnSl9erVS9+8eu7cOY1+eEgT8QH+nW62Dh066Oe3v/1tXT3gf/2v/yUVFRWRe0KU4wUnOs+IjODv/u7v9Ljx9jOMbMOEpoWBIBCFeOdGi5rvwRZ1QwkOx8ZxBscZWopT9NWCiAUQIFYA4FXfly5d0qnNAwcO1EiIfwPGX9iHf2OMi2PMmjVLf4sW6kSCw33jHjJ54B//8R81f9mPzTCyEROaFgzODZHBuT355JP6nSgEB/eHf/iHaQsOx+MTwcGJ8r0hjt2SCd6T1157Tf/2QkK+BTlz5oysW7dOv9OV5qNTy18j2zChaQUEnVs6gkNL+y/+4i/0e9v8GptDxetl3+6tEafJsfkEjm8t8euJvif8nUhI2A8efvjhBmssGEZjYULTikhXcP7v//2/EaFp06mHjJz7STk+4y8k9+pFuXzhnMyuekEO7Qqt+QUIE8cfPny4Dpa3FMe4c+dOfXcNXWQI6o4dO3SCABEIXWdcM11jTJzo37+/jvn4d93QHcY4DmM67MvstcOHD+vst0WLFmmUk+ieLFmyRD8ZH/LdoSY4RnPHhKYVEk9wevbsqU4LUYjluNiP8QVsEJG8Pvky7vbPyeGeN8jF8Y9Ir4t75cKpKvn9Z0LPovjjs6+PdFqCY0Q4mBJ9/vx5XaCUsRlmizGOw3gNAsJ3fmcsB0HyU6YRIH5j6jSz3Jg40LVrVx38Z39muzHzzXerJROc//pf/6ueiwmO0ZwxoWnF4MiYPYbzQxC2bNmig9CIgndciE4Qb4OIICBvvPGGXGjfW650GyLt8qdIp1lfltvmTJVOHUR+cmPNvk899ZTuj5gFBSf6+NkEAoI4IC5EKP5hT6oU3/lkhhrfeRanS5cuOnuNf0eMvK2fYMCUaPbnb98QeP311/WekF9f/vKXrxMSVo3GhqiKlb/JX/Yjbw2juWBCYygIAiLiRYHB/USCwL4IFHabN29Wmy1FFZLbe7i0H3WbdJ3zFbl51iQZ1Efke5Or3X5lEUFj35YkOKnghbYuBEUd8acLknyLlVdEVjQUgIgr2F3Z0vPWaP6Y0Bi18OLhBYc11nBavkUdy2lF22wt3hsRnF43f03mTB0f3lPkb291+296LyJO/vi+Jc7WEvne974nP/7xj+Xrn/60TBs7VqaPGxf+JTnkL2zYuVMef/llKT90SP/mGF/71KeuOxZL5jD2QxddGxdFbd23T279+Mf13pnoGE2BCY0Rk4YUnGE33C8nRnxa2uZPkdkjRDpcCu174dQx+VTOW/LkE79R4eH4LPHCseOlka2QL6yssHLJEqmsqJBe3burSHzWbalypbpaSisr5bj7fNwd6+VFi2Tk4MFy15w5eqyRXnAuXpRLp0/rGNBGF+XsdMJzPjdXBWf4+PEtLm+N5o8JjRETHP/TTz+tgsDCnYgHEHkgBnzecMMNOvbAApO0oidNmqRjEDysyAysF154QW0mTJsle061lQc++yXJy+smC3t8SXjEsVdnkUG5J5xtmezZ9L70Kv297Nn2gR57rGv133nnnfLII4/o+mPRUGwZ+2Am3Cc+8QkZOXKkjlMwE+u73/2u/PCHPwzvWYO34fPtt9+Wj7tWvh9XaQh4uJPB/Xj4vGTJmWeffVbOnTypQlEfEJwSJ/6AaHEcPoMwSYFuNM7rrLtPR1x67Tt10vvH0jomNkZjYUJjxORrX/uatsA9OMlomDnFgDhTe1nuhqm8OFoWomQdsIOHDssHH6yWO26/VQesWYAyt21b2Xyiq9wwe6bMnT1LDl9oL2+cKJTORS9KVddxcmb7O3Lygyelen+RLvkyefJkueOOO+RTrsXOIpYeLxrf//735U//9E91Vheix1RhxkI4n89//vM66I7D3b59e2QgHTuWmGFMgy6mwsJCXRQzXcgLL2RBAWM5GoSbLq4r7nxOuXMscemfdvnE37nu/OJ91hW614IgJuRh8HzIC0DQH3300RbbXWk0H0xojJiwxhdjCjhjnCTgtHBMOC7gN6IeIgmm5E6fPl0++9nPyowZM6Rjp86ya3eZvPD8c7Jpyza55FrVw4YM0vey4Nh5rz6t+4/d96CUnmovg7tdk0/84Z/Lv/7iCTncYYQcOnVFLr3z/8mhki26SOX48eN1ORcWpCTK8fBef471wQcfaETFbC2mCiN+ffv21RlbLBVDyx4xokuP8//MZz6jYkNkc/PNN8vWrVtVnO66667wkRuOt956S5+9eeWll6SjE+KvPfigTJ0wQXKuXpXLHTtKWyeQ/vOjbt2kvTtX/1lXwVm0erX8xjUQvOAgJnR3ct8QaoSXSQZMu2YM55vf/KZGg+QJ+1iUY2QCExojLggBkQzdZggK4zR0u3jHxXMhvlvN/07XFY77a1//Y7l46bJ079lLVq1a6YRgjVSUl8ryZUulc4e2OoWX7jWEgxluf/AHf6DO/9TFa9Jr5HS5cCVXrpw5Ig/921bJ3/5TKdu7XzqeLlfHOXPmTLnvvvv0HDycJ612phkTwbAQJkWb70wdRkRIjy4+IiXO/ZlnnlHHS7SEWCJMLO/PQ6n+XTMNAZEWER1dikUunU1r1kg/d37TnOO/5oQHwfGfV1zEl3v5cuTT/3uqVDlhpUvtPSc4QbHhvt1yyy36pk/Oh3wif3hIFBDv4L01wTEaEhMaIyk4cRw0goJzJooIOiUiiuDvCMeoUaNl+sxZ8q0/+wvd9+ixKm1JL1u6VJ579mnZsnmTXLpwVh0eT8Xj+OmKmzt3rvzRH/2RRidOOWTZHpHO1btcRHJG/nNZhbzw03+Q3Koi7ZoLtsT5RFB4eBEo1r67CLFBUKJBJBGkAQMGRPYhSiN64pmWhsYvxkn+bd206boxlVTwUWQymDDAFgTBoUuULj6EPsi7776rn7xPx99b8HlrGOlgQmOkTJ0E59lnw7+Pkp4ugnj0D78ij37hs3Ly3GWdgeUFh3e5nD99QoUBiDaCxww6uZJjl6Ri1ybZtHqppk+XXqL9myNeAOnGQ3jqChMJPve5z+l3xny+8vDDOl06FTbu2iWvuntDpIPtV53t1Chb7t/u3bsj9+PA+fMy86abZIKLIk1wjPpiQmPUGZxkUHBoBRNd4PR5PfF9998vZXv2635PP/kbeeapJ2Ski3DYpkydJl/68mMyeMhQFRxeIPbs00860dgkF8+eCqcQEhx/zGgHF0zf4/f/sz/7Mz2HbIAxkrqC2LOiM/n+1htvSOHQoTq9+bGHHqqZ3hwHpkcXu2iTcZzXlyyRM+fOXW978aJ8dOqUTo1GcHa4fM7r0UNOuXPdceCA3Hz33VmTv0bzwYQmTf76r/86/C30DvjW1OrzDp9PHB8bzp5us8lTp8uXXBTDsiulJbu1qwzR2bev0u0zWm67485agrPs/SXym1/9TLuGokFEYkG60ZA+Yy4t/V6Q77zNk/xa4ATnvBOR3k4QUqHq5EkVHLrW6L5DrKJtmRLtp0bDGRfZHHIiNyA/X18I94Mf/MAiHCNlTGjS5Pbbb484Ryqgb4F/8YtfbFUVEafnHR/PiOzbt19GjS6UW2+/Q7vN8vMLnHPcLe8vfk8jHARn1Kjw705wCvIHye5d2yKixTE8dclPdbwLFujgO91p2XgfGLOKBc8l+WeTpo4Zo5/kV0lY7NNl065d4W8hJjAzLifnuvXVuD+zZ8/O2vw1Gh8TmjT58MMP5Sc/+UnEMXbu0Vf6D8yXsaOGS5fuveTBe25rVV0N6vic4NCtpYKjr0R2gsIYymNfiys4t912q3zxD76gTut60dqnIs4DnKzdNSbsZGMRTD9bBYeHXiF60J6Vs//hH/5B88V3eaU6PpMKOjXapeEFh8kDQGMqmH/kL/Bv3BcTHCMZJjQNABWP/uy//du/lR1Fu10rsI10yJ8k7aZ/UWaN7C1Tr25qdRXxOsFBLEaPkdvCTqtg6Ej3e7EsXbI4JDiVe9Vp8cwMwsx0Z38Mnul5iWdQOnaUefPm6X5znKPlWRkeEGW2WPCBRIgnONwD0s8GqJpcl5+OzMKZRUVFumL2yqVL5ar7dwRnSgOJTdWJE9qlRtcaEwe84BClk+c33nijTo/2kK/AA59+QoYJjhELE5oGhOjGO9ZtJfskt+8o6d6lg3OGuTJpeF+ZMW64/Mu//Et479ZBTMFxTqtXn37qlO67914pqdgrx6uqVHCYGDB69GjdWHqGfXBiTEXesGGDCg6ijsiwBA5v76SLB6LFBqIFh/Q5NtOns8Up+siGWWp8khe8QI0HQd9ftEiOhBfZbEiOO7E55rYgrCD99a9/Xc/HTyOHAwcOaH6++eabOqZjgmNEY0LTwODYcIQ4tueee06279gh19p3k7bXLkle5/bqHGmtUxFbEz5feI4EwSFvvKBMmjJN86RTxw5SUr5Xtm7ZrIKzX7vVRoWiIPc7S9gE85Yn+1llAAeIfaIuyuB9oevpnXfeCR077BT1uZ1mjq7G7CI4utZ4zueQExhEh+eT6gMROCsiMMX5MVYrSBAZEd088dprsufwYR0fYlo1+yPtvVwUuvfIEfnO//k/cvTMGZ1m/vvf/16jU+4LgpMN+WtkDhOaDBF0rFRmHCPg5KiEzIxqrZAvbD5fEAzv9P/gS1+WAhWUIlm6fFVYcIiCRjrBuUO+6H7PH9gvkrfXiVY4Uonn2Lgv2GGPLa1xXkCWTYIThC7B+rJmzRp9o+d7774rl8+eDY37OMEZHkNwLjFTraJCx3HeXLpUzl24IH2cwDNOhPAUDBigv28oLpYlmzbJum3bND9ZvJOut2zNX6NhMKFpBLzoAC3qb3zjG3Gn7LYmglFGtODglPILhqjgvL9kiTz32+fd7wjOaLnpppvkK1/9mgwfNkwO7K/UVj3dlnSrMZ06Ly9PvvCFL8itt96qXWw8/R/raXjWXWMtNNJnzbNsFBw/caC++IdwlzrxeOett+TiqVNy+y23uKjy+mnmQHcaguK71cYMHy69u3dX0QH/+1UXeSH8D7vIh7xkHCfbIkij4TChaWRoTdOlYNTgIwwvOEQZOCmcEl0vvIZgN+MsCI77nanTY8eNkzlz58rMmbPkYRcdnnDHKHGixGrMCA7OEzsW4vzKV76iz9cwoB6LYPp0qTH47tNuqQ7xgQce0E8/TboK0Xd5x2dv1wjiM1Wip0WTZz7fmJFJeZ8/f77+zazB4L01wWkdmNAYzYZEgoNDuueeeyK/0+329tvvSJ++fWTYsOEydRrjPI/KEBfl7Kkol7fnv17rGCz0ydhBIscWS3D8OEPQeWYLiZa4YaVtlv8hEvnDhx6Sxz75yfAvdeeYi4qeeP11efK11/Rv8swLSXQXsRecf/zHf9RPE5zWgQmN0ezA4ROZeEFhwUecFwP/OKS7775boxX24fff/va3cuDgQff7WH0A9ItfelRfDYBoLH1/iTz71G9UcLDnOHSr4dziEUyfYzOTyjtPbLPFKSZa4obxGX99l86ckbHDnVi76Ka+U6V3lZfrtrmoSCMcf7/i5RlLDzGJgSnb//Ef/5HSfTGyFxMao9mCw/dOPyIoYcHwDswLjneaEcHh9y8+KgWDh0hJ8U45WnVCVixdIr999mltzfO0O91pLIfv3+DpV3BmSRxeK80YEq8PYCkWnoZn/S8/fTebBCcI18Q0cN7ZwyfP5eDsX3zxRTm4b5+cOHo0vGdqDOnbN/wtBGM0bLfceqtsc/cMATnnBI9P8mtK1MO2iM2KlSv1vC66CNI3Jtg/Vbh/z7z0Utbek9aACY2RFURHGUkF54ATHOfUbifC+fJjMrZwhBw6XCVlZaX6LA0PPebKFZ0mTJcc4oPwMH0Yp9e1a1d9VsQ/m4PQ8e+rVq3SCCtbBYfuQKo84omoMkmCjeiPN6NyXSyBw8QJfu/WrVvYsjbf+c53NE9ucoKNeHz5E58I/xIiv6BAqpyAATPVnnb5Xen+7tOzp0ZOX/7kJ2uJDudV4s6BZ57Ic+4nkwdSmTSDKP1u/nxZ7SKpHi6SNcFpfpjQGFlF3QXngIwZO04jHF7tPHniBDl98aqUlZbKpo0b5dlnn5ED+yqlV488HcdhHx4ApVogOl5o6Ibi32iB++Nnq+BwHcxWI4JDaL0L4JO/Gdvhur3YxII3mpIHCxcskEP794e63saOlUed4AyPilounTghO8vKNNJ58vXX5a3ly2XciBE6nbrW/k5sLlRXa+RIYwAB9ILTJrwcTjx8GtfcOa92UdoedxwTnOaDCY2RlSA4dPvg7J5//nl1TkHBYYwm1u+9+/bX3+luyR86Ulvyy5a+Ly/87nk5fPiwDBnUT6dF+33iEUx/4cKF6rR5cRtChW024B8A5dzrg88D3pHzwgsvyGEn6jEFJMABJwY73LbF2S1YsUIuOlFLRXCYMYjg9HFRZzJI44iL2C4411Z5+rSMc9FqontpZB4TGiOriSc43ukjOLTKGYcgwtm+fbs6Vrpb7rjrYyoKrDhQVLpXNm5YL2vXrJLjx0/IhXNnZdrUyXL//ffr66b9q52pLrT2cX5EBf4VzbTwf/e73+mxWfQTx5ZMrJoL9XkvThAfZfLJPTjkxOGyy5dEguMjELrVUhEcutQ4T17J7ddeSyXKOeLsK93nW6tWqeAQ4ZjoND4mNEaLwC84ySfOjqm7dAEhOEQ5iA5jLvzuRYkIBlHg9dG8qmDU6FFyYP9+2bBlu2zeuMF93ycjhg+T1R+sUsG54447aq0c7cc3OOaZM2f0k+3Xv/61Cg/7+rRbi3Pz94A8Xvzuu3IlLDjxOHL8eERw+joBGe8iIj+O42H8hi5LPhknI7ph2SG61VLBp4HgUB5+8YtfmNg0MiY0Rosj6Oy0hX3oUC2nP2DAgFpRECsSjBs3Tl9DwGuSBw8dJmdOn9an5ncUl8oP/uVf5MypU9KvTw/tVuMYfiFPoho/puEfCGWQnNUKELtFixbp761NcMh/n8cITjIQgyB0wwWZFM43xMZDfm91eRwkUf4eDaexZMkSFRyj8TChMVosODuWmcHZ0a2F4IwdO1ad/iOPPKKCk+h3nFbViWrtFlq69H156eXX5JBzgMOH5tfaJx7B9N977z0VpVTsmiMfXRG5Wg9PoYLj8qCuYPfSC7+Tl158Xv++5dbb5DOfe0TGjw/lW4e2+qH7AQ+G4spSyV+WMDIaFxMao8VTX8Gh1cvvRCIcY3dpuduHZ3GekZNnLsjQ/P71FpzgsbOBK3gJtz2x7qq8urNN6B8zTHHRLt3k6DbpffQ9Kex1WXqPvU1k3CPStl8ov1/5sn7oS+Hgz/7sz2To0KFZK+gtFRMao9UQT3D69u2rTql///76O/vxO11f/E63Gl1l7OOPsWLVal1ZGttx48bLLbfcXCfB4fgITvDY2eAUtx26JrurcuTsRyKP/i78j/Vk2sBrsuVwjkwfdE3W7rv+XUIRzruopcoJzt73Rfa850KryyJDnOCMfUQevi2UZ899QaSji3J4Jw5dlcyEW7duXeTeshlNhwmN0erwDp+Xh+Hw2XwE4/GC4+E39vH4YwBvVO3du5d85jOfkZ///Of6b4mITp8oh2NnUyv80hXn1MM9Yp96OvRZV/p1dXlxVuSrM67Kr9e1kX+6+5p85916CE6fifKJT7koxwVafzpX5I5RLhoqLtYZhoj53//932edoLc06iw0VAzmzButB19B/QB4S2Lnzp26AWU7ESxHQ5TjwWGNHz8+/Jdo6/nf//3fw3+lhk8fp7h48WKdxeYFJ1vy++Vwlnz6mdBnXRnZ65qUHs+RW4Zfk2XlCYTGc+5ojeDsXSxy9rBI73HuBkyQGXd+ToaOnigDu16Tf38oR8dtXnnlFTX7kz/5k1qC3hLLc3OlzkLDEuzf+973IhWOWTrWQmjZZKsDrCtecOJBJEK3Fw0tyj/Cwiy0YJ7Qcq4PHJv0OX62C87nng2P6WSaoOAc2+4+XZSD4Lgop+vkz8nd80J+6ffhF6++/PLL+mmC0/jUWWgI932FoMLxEBU3jJuF6BgtD3+/mRbq7zf3ujVW0Ojyz/pgiAuiQ56kWweCx/f53VDHbixecYKT3iOgdQTBOUe32g6NDF94c4lsP3RVJswKldO/f6R2OeUNt/DNb34zIjjsZ4KTOeo9RhNdIXj4jW4Ef8Oy+aZpYa1j9yA20WSTc0hGLAfYmhsYPj/4pKywITjUAZ8n6dSBYH77Bl1DHbslE6+cxsozIhzcH8LDs1TWYM4caU8G4MbSd82NZalxDkcLjJv22c9+NisrxLe+9S29Fk+HDh3l4sXQg2IFBYNl375K/X7rbXfI0vcX6zVy/dBu4AS5dHC7tMnNlU/+xU+k3Z6lzkGMy9q8iCZ4v9lo0XsH2FKusa6QH2w0Nig3Pk8aog4E85vj89lQx27JRJdT/JIXEvItyPr16/XVELzy+6/+6q9afXnOBCkJDS0qbloi/I3lkwqB2PgKkW3w/nQKp4cVbf3SI926dZdTp6r1+5Ahw2Tv3gq9Vr9/bte+cuXMUX1SPP8z35cOfYZK/+Orpd2hjVmZF/EqW7AiN7RzzVYymScc2x/fC453nuYQ4xO8J2z+nhC1eEHxsE7d66+/rt/pVmvt5bkhSUlouCncJJZ86Nmzp2vhdwj/EhtuLrBcBOtL8ZmqbXMheA2ss5SXl6d/cx0TJ02SY+HfCwa7CKeyUvdn8Ube8+HXZWo3YLzkFYyTdmcq5eyw+6TT+p+qTTblBYsY3nLLLfrkdazK5isyFRjnyt+t3QH6PMmE4EDw+GwmOMmJvifkWaKeF/YBejdMcNInJaH52c9+phtrF+EkaeGT6cn6MnlwCoe7ZcsWnWJYWlqqbzTMphsWvAYKH3nQr18/fQMj1zFnzlw5ffqU7suS67yfJLg/rc/ctu0kd9g8uVS6TAs4XXHt2rVt9nnBuT/++OPqKP/mb/5GH4B76KGH9JxjQUWmQpsDDBFPcCg/5Em8fEyVeIJDXqd77JaKz7NUG0ZecP70T/9Ux+BMcOpHSkLDzcDp+JvDFGcymo2KQ8bzGQ9vT2WgWwqobDzg5o/R3AleA9fP38GWTvQ1RO/Pdw/jOJcP7ZRb/m6+jL5WIuf2OAf+ifubnXMI3ncWivzf//t/a+OCF2KNHj067n2Pdb/j5VNrIJiP9ak/yYjOb/5uqGO3ZPw9Ic98Ob399tvVL0XnGY90eGHit9ZcnutDnScDcHPYaBWk4nCDBCsEthAMX7PhpkVfQ/D6+eQ6gvj9y8r2yI9+9H/0e5uufeXqmaNy21f+XsrbT5Szl9tK/9X/o1k7B86bjXeO8PQ7z3kUFBTIvHnz4p5vMK+ytYHR0Ph8jFV/0iWY30BeN9SxWzLBfIuXZ/Hyls9kD/oa9RAaDy0Bn/FUGB44w3lwg2K1CIJ4Wz6xZV2iVG2bC8Hrx2lwDYimf1o8+jo++uiyrFy5PHLNbBTS6u4TVXgubHrB3Y0c6dunj+YFT5g3x3zw1/3hhx/Ks88+q9PaeTEYghPv3gXziutmogTXnk33u6GJVX4aCo4dhLw2khPMt3h5Fp23lF3uo5GYhEJDBWBLRHSF4QZ50UjFgfCENfbYBsUqW5wP1+/zwOdXMA+mTp3mROai7tuuXXu5dOkjvWb28zYe1sy6di30qNtPf/rTJnEQ5HsqeR+874y/ITizZs2S2bNnJxUcPrO1gdHQkBe0loNL22QCyhl5zif53Frzuy4E8wxi5Rt1lO42IzEJhQYnwiAYPPypT8u4cTWLCkZDZaHSwCsvv6xdLLTwgUG0hz/1Kf0ej6D9yhUrVHQgWbrNiVh5MGDAQLly5bL+G2MbdDl5gvtDMJ9wwE1BVdVxOV4VEnwqVDJnxPl7wXnttdf0tbvf+c53ZO3atfLggw9qxYwFNl5wERyinNYsOJkmeJ8sv1PD5xmf1jBKj6RCw/Q+bQW5DGaa69ix43SqayK4OThRnO0rr7ysgsMNGosjffhT6lATgT039VVnm9OmjfRz9g85u2TpNif8NdQF8repBMZz5AjPaxzRV+auWrlCl87/9Kc/nZLgIBx8Ul7+6Z/+Sb74xS/qb0wciHcMb0dZW758uc7coyKnkqZRd2LlN61yn9+W57Ehz3zDyMpp3UkoNMFC6VuefekWGj9BxQLnn0g0cLY7dmzXJSEQDd81dssttya1xdlFC06q6TYXuIa60Ldv8+lL9/nPcvYlu4tTFhzwlbK6ulrHmojkeLnYjTfeWCfB8Q4wXlRk1J9gfrMEi89vc56JsYZR/UhpMgCZy8YUV0SDgolo+CiHKIVIJx7Y7lDRWKoRDq3lutoecY6PsQBa2anaGunj83/Xrp2y2wkOgpFqpcKWSsnzN08//bT+PX36dJ04kIrgeAc4adIkbVhYZW54fH4zxkZ+4zyZ0GLOMzHBcuoFxzfG2Iza5P5PR/h7XLp06aKtHSo8EcnMmTP1RVDr1q7ViGPDhg1SWblXu8j69AmNywTBftjw4TLOFdoZ02dI79691ZYblKrthAkT1dlMnTZNOnXsKMtduu+++25CWyN9fP4PGTpUevXsJadPn5a3335b7xv5zhYPbHmwla6zGTNmaJlhthqLHdJg4QHe6GN4G1/OECYqNH3krEm1d2/ofidK10gdn9/UbUSF/O7UqZNOR+c+W37HJlhO8Uss3km5Jt9WrFihPUCWbzWkJDRBghmM81DRcC1WBGfjho3q+Pv07ZNUcCjQvXr3igiOtz1WdSxulILYqeA4e9YeY2AdwVn47sKE6Rrp4+8dgsPyOfkFBer4f/zjH+vviVq+wTLDfafMeMHhnnL//erfHm/joxmmUHsH+M4775gDzADBxiTL51O/LL8TE+0PKaf0/BAdWsOohpS6zhJBCEnGEkKy7HZoHGaidm099PDDSbvFtm/fpl1qu3buklWrVuoY0ERnT0Gvi/2qlSslN7etVhbsHnro4fBeRqYg0iD/WU6ntKREZzLRbZBs/CxYZmgJ/uY3v5H77rtPX7s7atSouMcI2tFqZOzHd/EkS9OoO7Hym+4hJuVY91B8yDM2onYrpyHSFhoPLVJfKBEcpvbS19uvX3958KGHVDjiiQYFmm3btq06+Pzaq6/oOA72TBwI2ce/Qd6WqApb1mKbOHGSppnM1kgfn/+sA1dWWqLjODijZJWKMoMt68KdOXNGJw6wMCnOjIkD8Y4RLGsrXQOD++0dYDbNTMwWous2+T158mS9N6nc59ZKrHKK4LTGPGswofH4zOWTQomqo+hEGvURjfoIDp+vvvqqfOAipFRtjfSpr+CALzebNm2SJ598UpgeTzdbqoJjDjDzRNdtnCddba3VeaZKsJy21oZRncdoktG1a1cZMWJEpMLffPPNuhw+D/DRxYUj2bdvnw4Ms0UT6vMcof3106ZOk169esm6daFJB6naEs2MGTNWJk+ZomkvX75MFi1alNDWSB+f/0OHDpHu+t6eU7Jw4ULZuHGj5nmifmpfbkaOHClTp07VcZw1a9Zo5aSxwoupoo/hbfzYD3ZER/SPk2ZlZWXSdI3Uia7brD5O/WIcJzQxx/I7FsFyWlhYqCvCMz7J2OSqVau0F6el51uDC00QVBvHQVShg/9ONFRwXMHctGljEtHoKsPdzRk/ISA4EbFKbAukrTNpnH3h6EK5fOmyLHe2ixYtNMHJMP7eDR06VLp16yYDBg7SyR7/9m8/0d8TtXyplJQZKiUDq6GGxjp577339BUVfOffogUHm6ADpAvOHGDmoH6R39Rt7zwtvxPjy6n3h5TRAwcO6IzKlt4wqtV1RssxkxBC0uKklcozMRRWXiLGxIEHH3xIo5B4YLvNhZ8IzWuvvaovF8O2f7/+8skHH9TxmFTtV6/+QNq5m0y62JC2kVnoOti6dYt0cPleUVGuEwcefvjhpN0twTJDREuF/PrXv67veH/ggQf0vsc6RtCOViMv4KOLJ5U0jboTK7/pOiW/2YzrIc/YNm/erFFNSy6nEaFBZP7bf/tv+o+ZxhdKjxccLxqJHD+2CMbhI4d1ba2iXTu1ZdDPHaOugoXgnDhxwkU+k2XM2DFJbY308flfVLRLysvLZODAgXUSnEOHDqnY0HKmdcgUXB4AjXcMbxctOOxrDrDhCeY3jUnymwiTBkFLc54NSbxy2lLyLCI0XCjPRDCIjuhwcbxNkQLSGFAoSXuSC8cn4/jHjFHRSeT4uTFHnOAgGq870SHKQTQQnGS2XC8tbGyLdhXJmjWrU7Y10sfnf3FxkVSUl0cEJ5XyRgvQV8wnnnhCZ6zRTeoFJ9Yx2B87KvIHH4QaGEEH2FjlvLXg85uGAXV79erV2tXmnafld2yiyymNaPLMl9NspVbXWbyLbIyCQbpshJAIDrPN6iMa9REcb08re42rEO3bdzDBaSR83tdHcHx55VkFP6X+hhtu0C3eMbwNZZwGlTnAzBOs243tV7KVYDltCQ2jWpMBggOxLBvC++8Z4GPGFhtk6gLpzyUjSZvZQzx9ztPjzDbb4jKcPvnefXrHHMAPzeoYKePHT9Bj9OjRU9au/VBnm6Vi6wc2sR85apRc/OgjtV28+L2Etkb6+Hs3ZMhQ/X6yuloqK/fJz376U/09UXnz5ZXoO3Tfe+hkk8WLF2tjg2nWTBwI3jtvQznj/TkMzNJN4cu5TRRpeIJ1O9qvWH7HJlhOyTPKKL6IGZXJZt82R2LOOuMieUKbSugLBrN+aDnSAvTT8TJxkcG0mXVUIzhLUxINf3MighMQKxwQxItSgvYqOBed4Lh0veCwPI5FOJnB5z0z1bp37yEdOnaUqy7Ynj//TX32IFF5C5YZGgwIDrPTFixYoLPennrqKV2BICha2OAAadQEy7k5wMwRvE+N3ZDNVoJ55htGrBHIyurZVE5zdu7ceY1B9UTQz4qK8onI+ApK+JtpfNqEkKDRhxORAf0HyAOf+KR88pOf1H+PxeHDh1RgDrkw9I3XX5c33njdOaIpKkKFYwrlE5+ga2xMeO/r8fYI1YcfrnGt5Gq1JV3sEtka6ePzv7i42EU5e7VbjZepJXNGwfLK4oY/+tGPdPkPRIdKG+8YwbLGMzxMp6aMc58ZrzQalmB+44PIb/wK9yaV+9xa8WU7upw25zzL+fM///Nrzz//fMo3lwsEBIeL5LMxCoZPFyiUjOPURTTo79yyxTmtoiIVHLpWECzGYuoiONh26NBR+g8IzXJLZmukT30FB6iUbPRxP/7447qeGq3pm266Ke4xogWHsoID9Ptnspy3RoL57f2Kb8hm2q9kM9HltDkLTs6//uu/XvvlL38ZqUy+EuM8E51sU14k6TLFlT54RCc0UDZVHb+PNuKB00J06Ip784039LrvuONO7S5L1ZZrf8PZnqo+6a67U0rpGunj85+JA/sqK+skOL680vXLA3JMHKArgiVu4h0jWMZ9i5to3hxgZiC/2Xzdbu7Os7kQLKc+z1L1441F7hNPPPE/ERhm6pSUlOgJMxZDvzjjEvH6/4J9h3xeuHBB+1sZy8GOipypC6SyM35D2pw7ffJ0bZH+1i1b5ADjOL3jn/fIkaNUWIiIuvfoLuvXrxNWDEjVFlHjBhIRXbhwXl9VwJISiWyN9PH5zzhO585dtIFRuW+/LFm8OGl58+WVffw4DpWS+0akRF93rIkDvoxTzigz1BH6x305Z3+73w0D+R2s27H8iuX39QTLqc8zxm9S8eONRa3pzbQkUEeU8fXXQ91L3HRaFIyFJKrIBw8ejKgqg/e8xhdbHHIy23QJpk3Lk7RrIpxPSGFh/EiD6928eVMkwmF9Lmwp8Pc/8An5hLNPRNCeJXI6deqcUrpG+pD3RDlMBWU9vC6dO2s5Y0sWXWJLeafMMGkA0frrv/5r4dUHvLKA1mAsgnWEcs47cnyL2yLahid4n4L5DZbfsfF5hl+kEYU/9F2RlPGmoJbQeII3F8HB6fobXBfB8eFvqmKVLvEEJxXR4JoRDD7ffPMNFR1suUGs5VQXwfKC49MdM6bQRCfD+Ht3+vQpzf9Bgwal5Px9WafssHDn97//ffn85z/vIqbOOgsu3jG8nQlO4xCd3/gW6peRGPKNsg2UTyL4piDHOeTrhMbDCXJzuancYPr9gqKRqEJhy0Xyyl/EikiBypuKbbr48+aTtNkQjKlTp6lo3P/AAwkdP2LFwp20BuY70eHcsed1A8lsuWZsmTiALddMhUjF1kgfn/+7d++WA/v3qeCkWt4oM5RXVhr41a9+pe+B5+2JTByIdwxf1qgfPMPD/aae+P0zWc5bI8G6bdQNyiXRelOQ44QjrtB4gqoIXnB8hWJLhC8YwcrYGIID3nkglgiODyPrIxr1ERw+33zzTVm/bm3Ktkb6pCM43pnxLM4LL7ygq1QwcSBVwaGcecFprHJuGM2ZHLep0NCtlEwwglCZmHnFctdsVCSOkahCURlx+lRGKjHvL6EiettMEkyb81bBcWLJeMr999MtVhje83oOHToomzaGusV4gFAFJ0VbwOFtck6ICImJB53ddadqa6SHv3e7dxe7MnBABSdZOfUEywzjOAgO66nNmTMn7jG8DZ/UEco59YNynmq6Rogf/vCH4W9GXWiO5Szn29/+9jUcL04/VcEAKhMbkYJO9XXON9UKFS043hahw/FmMpMyITgDBgx0tg/osvWJCNqb4DQuPu9zXNPqgBOcDevXR8ppsvIWLDPvvPOOHDt2TP7u7/5OePXBvffeG7eBFqwjwYaVCU5yyLPbb789/FcIy7PUoJwRTVPO6hI8ZJKcAwcOXKMy8AIeHG9dW2DRjru+guPFznc3ZLoyxhKcadOmq+Mf7Zw+whEPnBbdJIfcMd6cP1/ecqJDV+JUZ184erTc52yTCRb2CA4OjxeFDXDXff/99ydM12gYyPtNGzdI17yustGVgVSjHF9mqCu8pOqf//mf5dFHH9XnFniDYrxjBMuaCU5qkGd0OdMLQP1EeMgza5Alh+ng5Bd+eMaMGVrO2JqSWrPOqAzrnePj5ta1QkQ7bgTnC1/4QkRZE9kHKzC2p0+fbrTKGDxvbg5jSJxzqqLhnVbx7mInOPP1ur1g1UVwsOWaU03XSB+f/3Sr0WioS7earys8s/CLX/xCX2nM8z08ABrvGLEEx6fJZlxPdJ5RN43EkGdsnu9+97vqi5uSmNObY1WI+ggOtl5ZU61Q2HKM+qSdDv7meKGNjnLqKhr1ERwfIW1Yvy5lWyN90hEcX97ZWMqJ53F4+DlVwaGcUcZpeXKfM13OsxWfZ0bdwf82tUDHFBqPd7xUCD55ApVKyFhEMsHwtj5KIQymMvkKxTESVSjsfGX0aSM4yewagmDaPsKqcfz3y+jR8R0/173RRThecJgqm6otYEt3DhESn1275qVsa6SHv3clJbtVcPLz87WcpyL0wbrCxAEedg5OHIh1jOg6QpkLdjtbA8NoKcR8TYAnLy9PCztvLxw2bJg6zYULF+qLeKggtPxZ1qB3795hixq8LcKCMPDJv2FPZeQJbCoatrGWRvD2LKvAswykTd8jtnzyzvlMVcRg2ixXwt+89plpztu3bVcnxHnHu24EYcKEiWrPOAAvU+P9Nt62qup43HOn5THNORvsh2qen9Ylbkg7UbpG+vh7x7txeDlX7169ZcvWrfLrX/1Kf0/UwPFlhrrCUjX8zcPKvJqib9+++pDh0aNHax3D2/g6wnfKtS/n1I949cswsomEQuPxFQLHycZ3hIa3GgYFI16FIAqiMnl7jodYUaGS2QfTRuyILnhfPPa0ABG7RGmnQzBtHAh/syijCs52JxqHDrl0e8U974jgOMdDZML02FdffSUUtWzcGN5TktrT94/QIlbL3LZ8+XLdxyKczODzftTo0UK8f+3qVf1kPTzuf6LyFiwz48eP10iccRwWruWdOMxaY4Xi6GME64gv59QPtmT1yzCaOykJjYdKRMtr5syZ+sly65BqhfD2OG02KmFdBCdoW1exS4fotPk7JDhLVXC844fo9NmXWWwTnAMhUiHP8pzoqNNas9q1elcnF6ywvQrO6TMR29C4wu64tkb6EGFOnz5DernoBsE4dqxKyyv3PVF5C5aZIUOG6GKH/fr1kxdffFEbR0Q4LHYYfYygXbTgsAFl3zCyiToJTRBaYAgOFQIHyOA3FUG7eNRxplYJacEFBYcKzDHidY15W9Lmdxw3w0yppp0O0edNf3qJc/SMpaxZvUbWfLhGB5ZxStHpY+ud1oSJE2TC+ImuqXxNhYauMV7QFc8WsA8JTo3tnj0V8pqLkJLZGunj83/I0CHStm07fZZGu0NTEBxfVwoKCjTKYeVo3wVMdMMYTfQxgmXN1y8ieRo4NQ0Mu99GdlBvofHEqhDe6bNBvBZY0NY7bmap/fa3v9VWX7IKlY7YpYM/by92c+fOdf96LRTluPR37KBbLbFoYMc1IxoILeM4nHddbMkvWsoILWK1fMVyE5wM4/Of8tY2t52Ou6QiOODLDfcMweFvygzjOLyel1cVRB/D2/g6wr1m8U8iedLMZDk3jIYi4ayz+kDrjGnJtNjmz5+vr89lnSgiDx5IjCc6Hmx5lgWBwZ6xCRw6M3GS2QfTRqRIm5lDoQch7w/vlRmir5sujxkzZuqMsY/fe1+kmzEWLI1CNyBdcf/2k59o5ONtGSdIBmlv2LBexYb8qoutkR4+73Pc/3r06C7nzp3Te52snANdZ5QZGkcVFRU68P+xj31M9K2xceyx8WWNOhKsH6mkaRip4P1VQ5WpBhcaT9Dx+ugkVcGAaMddX8Gpj9ilQ3TadRWce+7+mDoQQHAGuqgtVQ66tBmrgrraNjY5OW0Cn85N57ot/G9A1yn/XpvQ3/qTI1Ryo4tv6G9frK9duyrXrrrv7m+++3/LBD7/ibTZUoUywwY8U9O9e/eU7IN2dU2zJaBlxG01ZSnG36Fv4c8a/G+x3V9UGbpKeaH81JQh9yWObcvAl6VU/XUyMiY0HioCrTAfpbAEPxXJX0AixwvYY4vjfuutt1RwEA3sWfI6UQb4FiOf2CJ2qdqmi0/bC87Zs2d1VtHAQfny8Y/fq2tkxeJf//X/l/98/HF9k2M8Pu5sR41KLVp5e8FbtY5VF9uGgtZ+hPDXiBPIyQ05hjZt9N9KdhfLgrfeDP12HSGb2k4ifvFVpxD+OeQswv/WxITOP3wtbWq+w/W/eYLfg9Rcvwpq6FstJ1jjHEP/aUkO0ueXlqFwFuW4shSfcN7WKkP6LfxZG19uoOZ788jDyLWnXIYg+m+ofS2hchT6NwSHBv6gQaEHPoO/1YWMC02QoGg0pOAgGMnes4BtLLFrLMHxYofoEOHMcDdv9KhR1zl+rpMFNxmviRYJT02ElFw0/LFKSna74y2ok21Do4KDE/AVgU91EDiGUAX4z1/9Qv7xe/9Dv4NOM26sVyqEqwJVglPTT/6uR8WKhkkjjMNQzn1ZxzmqU+QznBdBp+Fb5qVlZbJnzx49n8uXr7j7NkpGjRypv9U6t8jXa1rOS0tL1DEgNCNHjnA2I7goPY5aBpyopxHdQRqQV+FPhb/996bG5V+tPIz+Oz28QHr4O1SGaLCF8iEkuqH9fBnyf9cQ/t1t15Vv/bPm33YXF7vyVKzlhbJ07WqoDI4ePSrlMtSoQuPB6XrR2Lx5s87CwelTAZMJRtCWyoQ9qjt79uyIfSLRipd2MruGgHSZ1sp5Izoa5TjB4R01H//4x68XnHVrQ4Lz9oLrBIdrjmcbDccKHW+dHuvcubPS3V13KrZpowXcF3L3SUVwzpRCF/zJF8J1H26S5597Wt5Z8KZGN4NcBDiooEDuufcBJ46ZXXDUn6WeDX9QNSIREN+9kw7D95ywGAX+ORZ0izINfvu2bZLvroeINjSGluO0N9d9cBQnNLlhx+Dwxzx48JDOynz77be1G5oFPGe58n7PPffo9xDB86pJj3Lzzjtvy8ABA+Xmm2+Se+6+W98cet11efvIhUT/3VS4fIncGP+Ff2MLOVRtwLjPmnsTMWgi3HnoqdQ0WELw7y7fa+Vp+Ht4/+RwreFPhb+pU2GhifwdKkc1Sfn9A+j+QQLpB86H7uD9+/ZFyhKNJvzPzTfdqGVw1CjKE/9nf76E7Lw9fzeJ0HiinT6Oty6CgfMMOm4GYoNdY3UVHCYOYMeWSYJpe8F55POfV6eaScEBoquDB/br8bZs2ZxBwQkXYgpzrRYW/4kUwUhZDxbCAweOOcFZrWMeC+a/oaIzc/YN7jopG2Oc6Nzvopxh4b0zB6fGeYVPscY3h6n17/qf8A5apSK/Ri7ywIHQel1l5eXSs1dv+eiji5rn99x5q/6eiINVp3XCyIoVK/R1vKzDR08AM9LuvPNOGTm4f3jPGrDR8uPsmBp9/vx5F8l3c4Jzs9z9MSc4Q+xVyEbq1JTB5frg8bmz53Q4gAbM3TRghsRfTy3t6c3pwCD92LFjdeomzxhcuXJFL4BZODt37pTDhw9Lr16xH0b0M8oQJuyZLspbDVetWpWyfTBtFkMkbZYN2bJlizr0eLbpEkzbnzcvRuMdN7t27pIjet69Nf3Q9NaxOrV13LjxcuO8m9SHlYYFh8kGxUVF2lLGdtWqle5fc5wDG6W/R4Mw+eMVFAzWNbmYrbZq5apa6aYN4hIO6UNi4/6NP912je9+i0FeXmcZM7ZQZs6aISNHj5PJU6ZpHi18Z4Ese3+xu84d7lyPuvPsL7169whbNQLB83Ybl6UC6a5J/+B6fTeGfrLx7y4P3E553btLocv7IcNGSMfOXd3PuXL6zDlZ/sEaWbdxi/TqO0B6de/KEa8jr3MHKRw5TCZMnqYNqE6dOqloLVq0SHr27Ckvv/amXM1pKyOHDQ5bhGwG9e8jM6ZOkpGF47TMnTxZ7RzFSvlg9Wo5UnUyYZqGEaSmDE53ZWmc1kn85YqVK6WoqDhheWpSofHgeMeNcw5l8mR1vEzvRCh4sRQtuESCAdH2XnCIGFIRnKDt5cuXtS+d5xSS2aZLMO3BgwfredNFwjTnXS7toGjk5XVTgZjpIjb+njxpiowaPUpOHD+uS9sgODyDRMSCCG3dukU/4wmHP16N4JwIC87KSLpQZ9FRUcE25HTV14b9LVswckmF/PyBLpqZKRMnTXd5NUE6d+ksq1etaFrBCcKlRm/uemu2HNVaCWmN5kXXbl1kUH5/GV040olEf713R48c1WdqikrKUxKciVOm67M8rKtG1PLzn//cBVLXZNWadbK7bM91x0BwvB0NNBoY1C3KmwmOUReCZZDGC40eyi7lCR8Uqzw1C6HxeMfru89w/EQaRCiNKTg8CMnyH0RYqaadDtHnzSc37Pnf/lYHdLdt26qi0dOlzznQxYbgIBK0LPr176f5hOAAjgfBYWmeol0uQjpyOGIbTVBw8vNdZOcEZ+G778ratR/KurVrE9rGRFXFeVVt0ft/C3/4v+tBnnPOY8YVquCMdZFdJ3dvVztBXLZ0sRS5e3vk8DF3nv2aTnCiCYtO9DWH/zmydcvr6ARnhBQMHeVEOEeOHq2SNR+uluLSCq2sPd11x8JXdqKVbj37qOBwj1599VXtCqa8Hzp6/Lpj1LRKp10nOKvXbpCcth10i5duXQl2Ihoti2BZQnDwt0HBCZanZiU0QagE3vn6rq2GEpyVrtXuiT4GtqTNO0Xqk3Y6+PMmbYSW9Hmu4t1wd2K0aCASvgsuluCEopxdKlSpCE7wWMOGDo/YfuDyLrHgOFcSCV3Y+Dv84f5UT8PWACA4Y8eNkUmTZ8hYd287dXKFe6WLcMKCQxegK9ku6vOD5I1M1LXy1UdxsbLA/1te145SWDhcBg8f6/KsrRyrOi4frlsvJeWV0qNPf+mZ1zm85/UQrcycNlmGDB+lMyhZaYKyyjgc0Xk8wRkzangtwWFldRoojB8ePV6dUOhSJdY1Gy2LYFnCh9BoRWgYz/HlqdkKjScoGlQInChOF7FAPIDZFrEcYNCWT5woQsOFM4mA7ciRI3GFw9v7cZxg2tjh1OONhaSLFzvS5hy8WLLcyS4nAP682bxITJyISIyVfv3667lyfuAFZ/v2bdfZRuOPxaSKkaNG6neOQ7offLBKl1xRW/JLm+tuU0UJbcwo81rDWIz7f0YICs4Y7tHkqbJr53b53XPPaPS3bes2KSth0L2RohwuNMnFppIXeV3auVbiEBk8YrwTqDZy1AnOuvUbpKRiv5w8e1GGF8QfwPcVvnDcxMg4Dn3oCA7To+nS6NG7X1zBYWIBC4Ays43182idNpTgpINFRSGaez74skSjhzFBnr9hKIIy2OyFxhNLcJjuiVhwIThPxCKW84yOFPi8dOlSJMphYcP6CA4DsYwjZXrigE+b6AznoYLjnAfnjTDg1EmffYlGEJxxYcEhCqFVCyo4zkYnDrhPhIOiG08syWeOR9rareYEh/EjIpxjx45Kz959nBPvI6JTct1J8AxIsCY0Qq3wgjPrBoQxJDgdO3aShW/Pd/doiRTv2iFHD1dlXnDiXKv/57pmRddOuTJ6RIEUDBvjHEyOdO6a56LL7bKrrFKqz12SnPZdpEeX9rpvdMQUEY+pMyKCQz1BcAYNHCgvvfpGzIkDQSeB6HC/iYyag+A0QlFqlgTvbabzoCGFjCg72IDJGqHxBB0vrW0GRIlSXnnllVqCEUtwAKEI2lMJiVAQjmT2wbRxwogVU6tTTTsdgmnzyXnj8NeuW+vC07XOGXyg+40cOaqW4EydOk0mTpioz06cOBGKcrzgENmVlpVqpIMY9erVM8a554SinHHj9XiD3HWfOHlSVn2wWj5cu94dY53bJVdGjBxWu5ss07UiBvkFA1VwJhLluOvXPFq5QpY7wSnatVOOHqmSXj37NpzgJLlW/8/pZAWCM2p4vm4dOveUq9euyekzZ+V9V15L9x6Snv0LpGfndjHTyOvUXiv7xGmzZeToQtdQmSDHXCPppz/7hbTJzZXVazdKacU+6UnXXEBAgk6CWYo0rBAcGnRNITjp5F+2w7U31vVnIh3fgMk6ofHgTGnh86pcWm2E/Dh+BIMWfzKn7+19t1rHjh3rJDjelnnkpI3YEd2kknY6RJ/3MCe0nO9vn3tOxSIoGkOHDlNBZHLFRITVtSx4J4oXHOBZlXXr12uUU1y8OxSpRM7dFb1It1gbl3YPHReZNIV+/QI5WV0t7y1eLBs3bXLnsFvKK/ZKT+fIe/bM02M3Fd2IcsaPVcFBcDuq4CyX5e8vrp/gUAODtTCcJclIYZc6MaBfdxWc7r0G6kvUjhw96u7duojg9HCCE4u8Tu1kzMihMnPqROnSs7/LmwnSu09fee3NN125LZKdu4rkyInTTnAGSs+8jmGrGicx0UVGCA5lhvKt3c7rN+kg74gh+eG9609DtqSbe/dSqkRHqc2RuuR11gpNEKIUBAfnS4XgXSEIBjNpImMKcZx+0HET4QQFhwEtjsEYUKzuJWx92vyOfV3STgd/3j5tBuBowfMsEN1bxUXFLv0jEdFg/7FOmCZOmqizzPr266uOg9YqnDl7TkrKypzTKZbS8go5VnVCevTuo/ahGWSuSIUjlm7du0rhmEKZMGmqjC4cI4MLButSNyyvw1PDx46daF6CM2m6u2YEp6OLAl2E4wSnmLGqo1Vy0rXQRyabOOBrE59xalbwpwS7NQg+yskfMjokOEeO6qoPpZWJBQcG9ukuMyaPk8GjxrsGWqE+20N0ylaxt1KOnTwnPfoOinTLQURwps+RAYOIaKtlydJlroGxWYrL9kr5vkPOxolU1xqR8qTiMBsyr5Idqzk68FgOm7+b0znGoi7n1yKExhMUjWjBYYN44xHRgoPjZkD02Wef1TEY3v0RihRiCweCEy/tTAoOBIXWiyUtz5DgFF0nOL4LLiI4TmwQHASVbpndJaWy0wlVifukq4XxjZ69nGgES7/71Acrx4ySGTOnyfDho/U8PtKxr5U6Nbo5Cc44Jzg6cSAsOIcPHZTXXn5JNm1cLzu275SysgoX4Qxw19mt5jqD1+vwX4OfUbvU+p5p8jqHxnHqIzh5HXKkcNggGTluihPaURr10ZW6ypXXyn0H5PCJM9cdI69jWxkzYohMnDFXCgvHSsHgIbJh4yZZ8PY7UlpWLlWnL0iPfvm1RCo6f5qa5nY+0NzOJxO0KKHxxBKcBQsWaEVCPPzgfSzH7219pMDzCThu7Jk4QJSTSDgSiR2Dqp5YtukSLZZBwWFhvGPuvHv2vF5wCl1U0qdvHznuzrXK7cPCedUnj7trLZadO3bqoo5VVSfl5InTTlCGhFOrzaBB/VVwxo+fLP3795fjVVUhwXGOD9sePVx01IwEZ+r0GTJ4yFDp0LGDvPv2fH0AlJl5x45VS68++e5caz+86J1B9GdzICg4PPvFM0Y0il5+8x2R9u463Ba3Wy0sOOOmzNJ10zp06BBZ6oby+/rbi+Vq284ybFDfsAU2bZxNvsyYNFaGjQmN2126fNmV8dWyfsOGsOAkFrpsx0dGkKgspLpfS6dFCo0n2vHy9D3OnsH7ZIIBtNB5e2bQcdOtVl/BYV0z+rcRvMboVqstOKHuQC84dJsxQSAkOOMjgnODE9irVy677ZITi2Ny0gnOrl07dAyKB0B3FZVIRUVlXOHwUc74CVMigrMyLDjr1m10la1tXLFqLBCcgoJB7lpnq+iwLAwO1o/j7C7eJUcRnL6DpVePzlnjILzgsF28wvI2Z9TTLV36votyDid0/iHByZfxU2fpw8rMFDp2rEp+9rOfat58uGm7lO07ct0xBvXppoKDnd5vFwHTqEKsWrLgUCb8lohU92vptGih8XjHi2jgXLWL56OP1PHq1M0kTj/ouKmAVDwvODxzgD3rTSUSnFBX1RhN208c8GnHs02X6LQRHB44fe21V/VVCTt37pAyF634iQMIDlO/R4wcITNnzJTevXtJ1bEjulWfPCn79++TDc6BcP48q3IsQaQSLThVTnAWLVqoa7oVFZdKefneZhflILQd2neQVcvfDwlO0Q53jaelV7/B0rN7/AcmmyMD+/WQaZPHSrdeA+Wyi3IOHz4iGzducGKB4OQnFZwZk1x56dZbJ9pQNmmcMcOSe3/s1PnrjhEUKiaccL8RHNZjW7+1SHI6dHVRUZ/w3kZro1UITRCiGgSH9dR4CyWOPtWxFBw3XWnYxhIchINxDl2GPQref4OtFzvsfdqZFhyfNkLJ8jqIne8O5Hkczp2IC8Gha43fxzmBYqbamMJCfcWwF5yrzmmdOlWtNnURnAlOcOiKJLpjOvZb8+cntW1MVHAmjJNJU8IRTlhwlr3/nj6Lk62C46OcgqGF+vDcIdfQSEVwwEcr+cMLXRQ6XPK65smy5cu0zPMAaDzBGTMcwZkdEZzFixdrw6a44oDsOXgsabpGy6PVCY0nKBrRgoPjh0QTB4KCQ9TAZIFnnnlG+8YZB+IznnAgdt7xB9NuDMHxQuu71bxYxhIcrrOhBWfmrOkyfNhoFZyLLqqkS48B7GwRnA8/XC/SprPktO2cVaKTjuB48RgxdpIKDmWG7l/Kzb59++XIybMJBYexH+430Q3dx0TRVacvmuC0Ilqt0Hi8aOB4BwwYoM/AUBkYU1AHmmCmmbfFcSNKDK5TCbFHOGocd2z7YKTh08aOB+PYIFZ01BAE0/bRGSs3Izh0kejzNE7wogWncLQTnN69ndgcjQjOyRPHpai4SHYVFUuZyy8G/6tPnpZh8SYO5PdXwfETB8gjBIduOWx7OsHp0UwEZ6ITnNGFY/XZkx3bt8iaVctl/drVuh07nn1RTlBweO6MVRTKSsvk1bcW6qSBRN1bXjxiTRxgVYydpXvlxNmPah3D2+jEgcIJ2rCi29p3qyE4odltbcMWRkuk1QuNJ9rx8qAjlYG+6WSCAUQK8+bNi9i3b99eK2B9BYdnUmg1JhO7dIklOLRUWa4kluCExnwmq+DwICgTB0qKd8m1sODs3LFNZ6pt284DoKWSo+vjt40pHN26dXZRFat0hwTnaFhwcF7r1zNxIDeuWDUWCM54Jzhz5jJ2NVZmzrxBLl44Hx7HIcrZmbWCUzhysIrOhcttpLr6lM6QWrtlp2zeWZLQ+TPrzAsOEwco64jWU089JVcuX4lMHIg+Bl1xMyePVbvocRwTnJaNCU0U3vEiGkQThPwXLlyIRBoIRqKuraDjZiXdoOCEHHd8+2jboNgls02XWOdNhIPglOwukbUffuj2Cs2dYdkfBIcp4LRsdbXnYUOl6mjNxIF9+/Zpl9ievXtl0+bNcvx4tXaN9eiRWHBwQMyKW7Rwofbr7y4uk4o9++LaNiYFgwep6DBxgAdV27dr5wRnqQrObqZGO8HpqYLTKWyRHTBxYPqUcbriAM6fCSMbN22U8sgss+SCw32jsUD36ksvvSSlPIsVmThQ+xhBu759+2q5ppxv3LhRNm4v1okDQwfaxIGWhAlNAnyUwlgMlYgKWBfB4aFPbIOCw8QBRINjJJo4gG1Q7HgNb6ppp0P0edMdyOw0xo+INLR7S9PvpefAS9PmzJmrM9t40pwulOORbrWrKjg8NLojHJmlJDgTpuh1X7xwUfNq/lvzk9o2JqyMcL3ghMZxdheFIpxsFBwf5dCtRvfW4UOpC86gPt1dtDJOBgwZpeM4XfO6anml3NRMHIglOAU6U80LDgvV8j6dkr0HwxMHLMppCZjQpEDQ+cYSHP9MSiyiHTcD8MGJAzyPw2c84UhH7NIhWuxY8pvILtStttS1WHdr67eHS59z6Natu4tIJqjg8B58FZyqGsE5VV2tgkMrV8dxUhScyZNC3YmkHRnHaY6C40S2fTsXBYa71Eqc4Kxdu1GkTScZ4ZxpNuEFhwdAEZxDTnA2ITj7jzrHzwB+fMfvxWP4mImRbjXKKg8O799/QI5Wn7vuGEHBQaS41zxUzers5eXlcvzMR0nTNZo3JjR1IJ7gvPfee0kFw9veeOON6rgRHCohYzE+ykkkHInEjodAIZ7YpQtiFxRLzhvBIf1YghPqgostOCeOV+k7cXbtKkpJcPLzB8js2TPcMado9wwLSTZLwZnIYqMhwRkzdrxs37ZZnnvqP9017pai4nLnMPeFx3GyJ8rJc449KDjcdxz/awsW6cSBRN1biMfYEQWRcZx2Lupjgg1RPd8RrW59Bl4nONgwU40GC+Uc0aFbjW5UE5zsxYSmHgSdPs6Pbi2mNL/22msqGDhexALHGwscN4KDPQ/EUfF8txotOeyTCQ5jKVTEQ4cOyZtvvqndWogdU0fj2aZLMG3O23cH8lK0ktKa8w4KTijCGeUiollOaC5J6e4inThQffKE7Ni+TSOciooK2bhhs0sBB9I2rugQ5SA4dLMwYQLB2bhhg3apVZ884xxazftVmgIvOHPmzZHhIwqlcMw4l0ft5O03Xo2sOFB14qz06luQlYLDdv6i6NP/TBzYuK1ItuwqTej8g+LBKueUdeoK0Urnzl3kveWr5Vq7Lk64ukSOgQ1dcbOmjFM7xn2Y9m+Ck72Y0KRBUHCmTZumXTx+LIUoI5ngBO3TERyiDNKme4KJA8ls0yU6bX/eTI0mbRbUZOIAEwXYd8KEiTJ37jz9u3DMGH21wbGjhyMTB3bs2K4z7Pbu3av98whHoihn3LjCiOAcDgvOCsSupLzZTBwYPCRf5t44VyZPmSmjXJRDHq1atiQ0cSBLBQcG9e8pM6ZNkG49B+gswYMHD8lm5/yTdasFBYdySVmgkcRq48eOHpPVa1bLsVPhRTkDxwjaxRKcUxeuuMiq4V84aDQsJjQNAM6U1hpRCs6XKOfgwYMqODjQYEs/FkHHTesfp7R8+XK196LBOBCVMxpvS9r8juCcO3cu5bTTIXjeCCXTo3ds364rXpdXlOu6auXloQiLjUgOwWF6NNeJCNaeOFDporJdGuXQRXPixCmXRu+kgoMDQuDfXfiuzpRLZtuYEOVMcFEOgjNyVKG0bdfWCU54HMdFd1WskpyFgkOUM2bUEJ04QPcW5X3zls1SceCodO+bXHBmTRkvXXsN0IiXSTGsHsA0Z6Jb1kiLPkZQcOiOJaJFcOjCZR23vYeqEqZrNC0mNA0MzpfK47vVogUnnmBA0BbH3bZtW9m/f7+8+uqrOvWT53F811gs4UDsbrrpprhpx7NLF3/epM04kY7jOLF86635Oj2aqa4srunTZ3+inHiCU11drW8ApYslZcGZOFUHkhkX2rVzh064IM+aleBMihacJbJsSUhw1q3bJDm5nWX4sPRfJNaYXCc4B1ITHMjv292Jx2AZOnqCTpn3q40jHkRKTByILTiDZcK0kODQwGCmGnaIFA+MmuA0P0xoMkRQNOjiOXDggDr9JUuW6DiOJ5bjD9rSJcdYDKLDWAzHCE31PR5XOOKlHVpBeZ22IOOJXboExQ4R4bxXrlyhglNWWubOu2biQI3gTHICheD0rDVxQB8AdaLBGyArmH3kRCPULVZ7CX/wgnPDDTOd0xrpRGeETs+lW42FPBPZNiZecJipNsKJ4mgnytu3bNKJA+VlpbK7pMJFg/tD06O7Zdc4Tu0I55C7fyd0DKf6/OWE3VtePAonTlfBocz4iQM0Oo5Wn9eJA907XS84frVpGji8aZbGyZYtW5zgXNJuuKCN0XSY0GSYaKd/9uxZFQy6CdiSCUYsx023GuM49REcP3EAsSNaiGebLsG0/XnjOJgazWyzaMHxXXAIDq/Hjp44sH3bVtnhRIdW66ZNW10KbWXosNjThgsKBsr48aFutd69+zRLwenuBGfipAky76Z5OnGA53Ha5raRt954RZ/HKS0ucud6NqsFp02bXBdxXJBTp08LD2JuKypP6Py7dWwj40YiHrO1m5UyQ1RKI4mod+HSVfpunKBoeZvZU8drZIToMCOTbjXG+0xwmgcmNI1EtOOla4tXBdD6ovWWSDAgluOuj+Bgi9jRtUSXXDLbdEkoOK4FzzRlFhyg28sLzrx5NzqHMVxGjR4tw4YO0QiHrfpEaOIAEy32Vla6CGCP7IkM/seKcroEBKe3Dj4jOAxeb1axCi+P08SiM3hIgQqOdqs5oW2b66LA5UtUcMpKiuW4vl65IOsEZ9CAnio6TBzA+Ye61bbIngOhFZxTERzWRkM86Pr96U9/qr9vdYJF11z0MeiK83bcbxOc5oMJTSPjHe/NN9+s3Vc432DXVmMJDl1yiB2ik2ra6RB93oxBbd+2TR9cZeIAqz/z2aNHKP3g5IqRI0ZKr569anWrVVbudYKzRlccoFuNsZjEgjMmIjgHneC8+87bsmXzFif0zgk1sygnKDgrdBxnkQrOiVMXpUefQVklOIDojB09VKMcJqrUVXBmT50gHfJ6a2OkR48e8vvf/14bacFVoIPHCApVtOBs3lmqS9zwHJCJTuNhQtOE4Ey982XmFAP/OH26tuoiOPRP5+bmRgSHCsgxGIu5du3adcfAlrQROxx5rLSp0JkUHNIODd6PknZOLOfPf9Od/zIpKy/TCRM9e/Zw5+C71SY5m8kqzJwTgsMWmjhwUnbt2hl5HufkydPOhsH/xIJDK5nr3rljhyxY8FZS28YkKDgjnMhyb1cuXSzL3YbgbNiwxQViXWT40EFhi+zACw4PgCI4NLC2bnWCczA0YyyR48/v20MFp2DEWC27TBygvIdWHNgvx89cvO4YQcGh642IduHChfqmWITq5LlLSdM1GgYTmmYAzhSHP3Xq1FpOnygDxw+IRizHH7RFcHDcdMfRPRUcB4onHPw79vHE7uTJkyoImYCBXwTHRzleLHkeB7G8TnCcQE1y5zoyjuCEHgDdlbLgzJkzy53DCOntrvuci+x45TSt3mYlOJMnhgTHRThsWzdvlGeffFwqykqltGyvVOw9KD375EuPLIpyunUJC46LcM4iOPtTF5yQeAyR0ROmqeBQZlhPDcFhqRzWVIstOEN0phpljiiHhgkPjbIOmwlO5jGhaUZ40cDxUhlYkPKNN94IrWqrU3VxvPG7xbD1XXJ0jZ0+fVpneyEcNY47tn1QcHza2DFLji65TE4cCKbto7MVYcEpL6NbzAllDMEJRTg9pFteVykrLZarly87kTgh25zTYvYR4zibN29zKeQ6BxN/4gCCw/Roru2ga2UzjoNYNzfBufHmG2XY8EIZOWq05LbJkbdef1mnR5eXlcgJ1hDLcsFh8kDl3r2yZVeZnLpwVVcLiOf8g+LBxAHKDNP4aWCxCO2776+Sa+06y5ABNQ8se5sbpk2QIaPGaTmn65hutVCEc9kJziATnAxgQtMMiXa8RBo4PgbvkwkG0GoL2rdp06begoNYvf766ynZpksswSHC4dy94Jx0kQsTBRAcuuAmT57i9p+qojN06GB9VQFRDlNrmam2Zs1qqazcJ+UVlbJ37/64wkGUM2HCWJkYEBwiHPI9mVg1JkPcOdx0800yhQUoXYTDvV3x/uIWIThsZ85dlTPO+VefOqWCH3oQM77zRzzGj0JwbtDXahB9nzxxUn784x+78tNWthaV6SrQ0cco6NfDCc5EtdP7ffCgCU4GMaFpxnjHe8stt2gF8o4fp0+XGE6ffeI5/aDjxhEHBSf0IGR8+2hbHD+VkK6lVNJOh1hp06/++uuv6QB+uRO8PRUVbr+eKqp0oTAFHBuen8H+RNWxSLcaEwcQHCYO7KWrxEUqDP4TKUTjBYdxHPr1GUd45+0FLkraKhUV+1Ss4tk2JqQ/KdytNnwEjYkcHcNhphrP45yoPq8z1Xp06xi2yA7yXQSC4DBT7cyZM6FuNddgQHBCg/7MFLweLziIR27n0Bgkz2W9+OKLGt3SSPJrpAWP4e0Yx4kWHGa3MWkgGBVlgpWbS3SCQrxrawmY0GQJOFQEh7EYHGBlZWWdBAenjW1QcJg4gOBwDMaAYo3FeFsvdtjXJe10iE6byC43t40+C8T0aGabEbkgOOzbvXsPnTQQT3BYV40HQBEchCqR4HTvXiM4TBwgz3FATBxIZtuYdO+RFxEcJg60cfcxJDiLpLyUCOe8nDx9UYZl2cQBopxxhcO0W80Lzhbn/JMJDhCtzJk+UQYNK4xMHKC81kwciCU4udcJDuuw8RgAEdHeQ8eTplsfKk98JN/97ndV2KrPX9UILBPpNDUmNFmGd76xBIdxHIglGBC0RTDY6BriFbwIjt/YL5ZwIHbx0s6k4EBQaL1YhrrVnOBUOMFxIkL6bLUEZ1hoSuyJ43EEx0U41dVnnE3vhIIzdy6rD4+QXu76cHx+HCeRbWMSFBxElvyp3FMub7z6kmzZuF7K9+yXPXsPhrvVsifKCQoO0TxCwWvCK53jDw3gx3fIXjxGjpui4zjkiX83zuHDRyJrqsUTHESK8owNosOir6xykCzdunD64lWdCcfxd5eWS8XpXNm+dlkkHRYNbQmiY0KTpeA8o50+YymITTLB8La33nprJEqhEmLvo5xk3WrJxA4yITrBtGsJjks/puA4sZk8JbbgnDxe5Vqs27RbjokDiAbbkCGx1xsbPHiQzJ13Q2TiwAHn9Pw4TrMSnCmTVHAmT53u7k9vjXLefPX3+jxORVmJnGSV5CwVHJ7FQXDa5LRRx7/gveXa7TS4f/zurZB4DI1MHKDMrF37oU4c4IHQovL9Oi4TPIa3mTN9kgweOU7vNw0MolrKS0MJDulwfASUpZYu5XaRrVs2ydFLnVVwEMWGFremwIQmywk6XkQDx4/TRzQQDBwvlYT9YkGkgOB4e7rQfLdaaJpwyHEnEhw20qXi804elnBnS2SbLsG0OW8VHHfePItTsSd03idPVmu3lxccNv5m8gBL3Fy59JETnuP6MrZtLHGzw0U5O7a7lv9+J54H4gpHpFvNCQ7nsX/fPo1wtF9/6w7JkbZxxaqxQHCYHHHzLTer6DCBgnu74v33dOXoPeWlWS04Y9126uxl7VK75nJ8W3G5bN+9xzlkBvFjO+Sg4DAzjYiFMvKb3/xG12djTKZm8kHNMQr69VTBwY5JKIgCgkO3WvV5F3EkSDMVOD5ic/WKu56SrXLWRTkfSTv58P0FUlZ5SCNSGnNMXMhWsTGhaSF4x+ujFJz7qVOnVHSIMpIJjrePJTh8TyVCYiPKYB8/Sy6ZWKVLdNqcayi6Y+LAZo1yWOPG/bNzvMOEWWo333yLCs5UJzjdu3XTCIeN8Z69e/fI6lUhJ6Ldakxx7hFfcCZOHKfjOD16dNfXHLz91nwVHJbG0VlucWyTsXfvIZn/5gIVrnjb9h1F7hp5+DD0d3X1WXepudelh+hMDkc5w7i37t+WL31PZ6pVhAWne+9BWTVTDQoG9pYbZk6WvB79XN7vV8En2th3+Lh07xN/1hiCM2H0UJk7Y5LkdsyTbq4MMNHm+eef14U5WaXi5NlL1x3D202YGhYcl94HLuJgogjruOW0d5FVPScOIDYcl4irS4dc2b/bRcmu3rRt31GOHz0kJeWVUnX0sExUscm+2XA513h03GiR4OQRGh+dEL3cdtttuuFoExFty4aIYeePkYho27qknQ6khUD4tPkc7FquQ4eExnhucdeA4HjYlyiIsR663/burZTcdu2lTW47t+Vqq3fejTfKjTfepM8oJYLZbSxxj9DxHBBVK1XbaOjW+cG/fD/8V2x6F4ySNkNmy7nLudJuzzLJa3/NXetg56xCqz5w7rHY48R3+bL3ZZnLm2VLl8jQYSPk5tvulFvuuEtucZ9tcrNzWi+On4c39+/fF8r7efN0GaNU4LkxohSEhlUqBg3Kl7lz5yY8hrfhnrOxPxv5nmq6sfDHpRzRS8Cx23fqKh+dPyPf/va35ZFHHgnvmT2Y0LQCcLjRgpOqYHhb77TZEBwvGMmEI1baPt1MCg4E02ajqBPNpCo4OW3ahH9luaChcuNNN4X/Ss5KJxRER1BXW+DBxRUrlof/ik2v/JGSOxShaSvt9i6Tk4dC6cFNN92sApuISnd+y5a+H/7Lneew4So0OW1yJbdtO73+nJyaPMgWQo56lUYHdXX4OHccuyeVY9THJlUyeezGxISmFRHteHH0vqvNRyuJ8HY+YgAvOqkITtAewfHpYptJgmlz/So4iM0tt6ro1BacCu0yRHBCf9c4b57BCf7NNQxxW6oE7dOxhdxew3RLxMBL5QnPN0c70WrD9UPlvv0qNNka3RjNCxOaVkhQcPjO5sUiFcEJ2rNBfQSHY7AvNj7SSZZ2OkSnnUxwQp81jprvCBCTDvjuHTf2fGdLRNAevC1pJyM6bS807Ufd5j6HxhSdkNDslYJ9r8iubZv1/Pz1xjtXjg2kxXe6AA0jXUxoWjFeZHC8OBW+e8efjuA89thjapvIPpgun/ydqlili0+bLSg4CE1IcBCN2On7iIfzxhkTaSAY2MQSrGiCEROiERSqVG2DaR9sN1yFBsEJiU5teyZB5Fe+qkKTI9ek184n4oprENIKpRMSxZYG10f+M3nEN3RSxZdZXiPNe3IKCgqSHiNYzsHXsdaCCY2hBJ0vlaKuguNtfZTi7flMVqG8Lcepa9rp4M/bf5I24ylDh4WcP+M5iZyHtvqdLc6Y8R1g7CcVWxUNl1cqHHv3qGikagvRae87nRMRm/ajblXB+cObRXpccDtfu6o2P1nXRk4vCE0y7b3ricg4lR+3ak34/GewndUmUu0+Bl9emDjAu3GA8soySPGOEauOBOtHJst5c8CmNxsK04SZ2szGdyoGFYK1zXhvO1u8yhC0ZR/+5jka/0wNDpyNf2eLxle6eGnHs0sXjkmavsLzndcN4LxDTohVA6qF53BipY+T5pkcplYzqw1oJWu0kcSWf/O2bEyXZRr4cme7ZSsPgMa3hei0u7UXqdqxVI657crxPVLQrlr+5uMT5cHCazJ30FWZM+iaPm+CuGzscrtOnd11tqese+2XUrxrhzpczjlRmi0Jn/8I+onjJ6S8vEJ4CV6icurhN8oKr7ZghhlREeV18eLF+s4bopzoY3gbNsoa99rXEdLMZDlvDpjQGLUIVgicH8/PUIloieGMElVEb4vjpgJjT8BMZfL2IQfaPaG9d7w+7dAKypt1n3hily5eaNRxh6OJUMSxVGeAnUpRNIiIcOlecFKxRTQQAOy7uetGaLHneZxEthCdNlOcEZyPSt6Xo2VbnP3JiD1io4JzLUdudpHTuTG3y7nLXaT8Uh9ZvV9k3cs/SXq+LQ2ff9zz405wrl295sr4Xnnjjdf190TlDVtfZpgNRllfuXKlCk67du20vEeXdW8TLOeswuHLeUsVHBMaIyYUdN5pw+YrQ11aYHRF3H777WpPJaYSBgUrkeDwYCd2VEYvODz8SUUkbbZ4tukSTNs7Gc67IQQH4QAvZNEE7UOCw/MuNYJDnqVimyztufkuynFb7265Mrxwhtx0y+2ySaOcE7LzbA9Z24oFZ7LLPwSnrLRUrroyS75R7vg9Xj7w776u8KoCyjoPjlJmu3Tpou90unr1qkY+/hh8BuuIL+eUtUxH8k2BCY2REF+JfCuMp6hZaYDKQAVk9YFEFSJoTzcDldD3UyM4ieyDTh8HSdpUWpbXSWabLtFpc944bcZDeLaBpeshluPnfNRpTXYtXXfNQwYPkc1bNsszTz+l5125r9I5cieWPbqrI48maM81lyM4Ll3WdKuLbbK0Z+bnhUSnQJxTFRfl3OYE5w6pPnFcdp7pLnvXviG7tjuRO+UEJ056LREaGLfeepvL++6Rl/5tdWWd+56ovPHvvsx07dpVoxy60l544QU5evSoPkzqV8kIHiNox/3mlQY+wqGMJ2pgZAsmNEZK4Hh9C4yKiGhEV4joChQk2nHTwosWnHgVytv6tKmMvGY61bTTIfq82YjsnnrqyaSiwflgd2u4KxHHc/XaVXndRYUqWHsrEzpxb49wcM28+K2utqml3T0S5VylW8052dOj75Bjp0TW7r/qohzncJc8m1BcWyI+D4kQGXcpKy9LSXCC5ZVXFPCCvitXrujrLXjin3ITS3CCZS0oOL6OsCVKtzljQmPUGQQnVoWor+DQYqRLjiiJSuyJdQwvdvVJOx2ixQ7HLXJNHTeTBzhv0sdpx3L82kp2Th/RGILTdyFEMEJKZMv1cL3etqBgcDii3KxdNIlsoS5pe8HpkZcrQ0ZMlptvu0PevzRdNm9cLx/suyol7z+jT97j9BKl2ZLw+a+Cc+yYK3MuwtmaXHDA1xXW4aPMsPgrYzhE5ocPH9YGU/QxogWHfeiG84KTyXKeKUxojHoTrwWG0/djAhCrQgRtGVfIy8tT0XnllVfUHkeaqEKlknamWt44jzvuuEPTJg0//qTjISmJxrTaTt/ZMp6Squ1tt92uTg97XnHNTLVUBKcuaY/pdlXmabdajmuNXwuN43S9U/aUlcoHlVdl75o3ZNcOutUSp9mS8PnHs09ecIjCWfk7WfeWL68TJ04MRZeurLOe3XvvvafRDWOglONgWQ+WcY6NHd3WRNSZblg1NCY0RtoEKwSCQb+2H7z3FQJnFKtCYBt03HTJ0U3hu9WCDjCefby0gy3vTFTGYNqcN87Dz1Qjbd6bEnLC3cMWNXA+Iac/RQa7CEVtiTKc08eW1aOB48aCKMXb53XNU6ElQsEuUbpQp7SdiCI4bJev5qjgHB5yp5w8c0XW7rsi2ytPSPmHbyVNsyXh82/I0CHaJXbs6DEVCvKNRg55EK+8BcsMryog7+lOW7RokfTr10+Fh4ZLULS8DXWEf+e+UM6pH6SXqH40F0xojAaDCjF9+nStFFQGBkR5GRotsFQqRLQ9lRDBYUtFcIK2iNX69eu1Sy6ZbbrEOm+NcNzGqwMSiQavoZ7q7KZMDTl9njInv55+6klh5hfvPmFVaM6dLZqgvQpOqRMcJxq80M2nC8lsU0nbC06XTrkysnCq3HT7nbKkerhs2VEiO0+7qHLZc61McHo6wR+uotOtezfZXbzbCUCZRpeUOfIglbLev39/na1GF9k//dM/afnhYVCmuUcfg0aZt/MNq2wQHBMao8HxlYgWGM6VkL+kpEQrBJUQZ0RliOeMgpUQW1qNXnCCkUKsCuVtaTGyMb0U0QmmnanKGEyb82bTiQNPOsftHPaBAwfUgTN1OfravdO/7fbbnd0QdTxXrl4JjwEt1SXwT58+FdMWgqLR1QkODghbunW263Unt02WNsdiy9m/Wbqd2CLdTm6TTcXOofbqI/vOtZN1r/9athZXSOVuoqpTMnHSpHAKLR+fh0QcR44e1QgToae8plLWqStMfybKYf8nXZlZu3ZtrUcJgscI1hEadMH6xQYcL166jY0tQWM0Cgz40y2AWNBS5qlqHuxM9N4UT9CWfm0GVO+8805t3Xn7RP3jVHoGYKPTZsmQRHYNAely7jgMpidz7rfffocu+TLvxpsSXntFRbkOGuPsV61cWS/bCpd3PETIO1pStYVYaSei8nTNStBXqso1nXfeXRT+l9aHzz8i2o4dOuhkgFTKOvjyznjMO++8o11pd999t5bXeMeIriMjR47UNFOtY5nGhMZoVHD6vkLQwh89enREMKhIifC2VCqcNuMv2PsKhX2iChUrbeywSZZ2ugTTxhHk5uYGHP+NGknEg+tdsmRxxOm3bds2ZVvAdokTvL0uqjrornvUqNEp2/q0Eay6wJs8v/rVr4X/ar34/ENwOnXsqAKQrJx6gmWGZ3Dg3nvv1briX7AWTXQdoZzTKEulfmQSExqjSYh2vDh9KgQRRioVAluO4e1xvqlWqGDaVEScfl3STofo624IwcGpz5vHmzwTvxAraF9XwTHSw+d9m5wc6dipo7R1950JHZS1ZOUtWGbWrVunEc5//+//XY4dO6aCQ5mNBTZsRNPBhlVTCI6N0RhNAn3MM2bMiIzDdO7cWSsFT/0nm7EFRDFB+8uXL7uKvET7qZPZB9Omf5sK+/LLL6dkmy7R1+3Hn3gWh269M2fOCA9SxnL82E6bNl2nJxfk58vAgYO0e4WHR3lw9ODBg+FB6G5xr9vbM3ZFvz4z1Xbs3CE7d+7UfUxwMoPPe8Zxjhw5Gn6G5oSsXLlC73ui8hYsMwMHDtSNcZvvfe972qVZVFQUmTgQPAZ1hAaUL+e7d+/WMs7YUSbLeCxMaIwmxVeiu+66S1tZCA6OP9UKEayE6QgOtgzE+llyma6M0WkjOLRcWcyR1ZsTiQa203QA+U4VhkHO8Vy5fEVeffUVnaLsBSuh4Dj7KeHJEiW7S9R22/ZtScXKSB+6isl/lrhBcEpKSrW8pSo41BVmpiE4vXr1kscff1wbHIgNAhR9jGBZixYcNsh0hGNdZ0azA4fLcwW09HF8hYWFGvLTNZRKN4O3ZRCc7iUqJq07ugySdS9hyzHqk3Y6kKY/d8aeOHe61e5wLVLeUTN37jwVpHiUl5fJYhcREhnxvnyuu662dO+scraH3HV7W1YhMDKL5v/i93R235gxY7S8pVrWmF1ImWGmGVOcsaO8JzqGt0FsKGvsz5ZK/agvJjRGsyWW4KQqGN6WT8ZCcNy+QlEBkwlHrLQbQ3AgmHZjCg7g8LAnqjl06KBrfY8I/2JkGu4dYk8ZZ+MeQCrljTLD5uG+U2aJ8CHWMaJtvvvd78pXv/rV8F8NiwmN0eyhMixcuFAd76pVq7QCfexjH4sIRjLniS2Om9Yb9lRC7BGOefPmJazIvvVH2qzES4sTJ+DTzaToBNP20dmdd97lROMWmZOC4DDmxcD/6g8+qGVb4OwQnUR4e6PpKHflnlUDjhw5rOU0WeMqCGXmww8/1Loze/ZsfbiTruFEx6BOULYzgQmNkTV4weETx4vj990EqQhOtGDVV3BIe+zYsVopU7FNl4YSnH2V+0JRijtv7AcXFCS1N5oW7t3i9xbJmLFjJK9rV30Is65lnXL60ksvaV1herUXnMa87zYZwMgaGNScOXOmigOVpEOHDjqYSl8zs6bOnj2bdDAVewZFqWyXLl3SByqxZ/pnInsGXb0tT86TNlNN33jjjaS26RKdNuddWlqiy84fOHhQiop26X7OB+kAcxCuefr0GTrTbNLkSdKhfQe57OxfeeXl0HMWzv7s2dDEgWhbo+lBJGgU5OV1kx3bt+tAPmWd7txE5S1Y1tmHN3726dNHfvnLX+o6gEwcaMyZZyY0RlZCywzBoSJ16tRJ14ZKVXCiHfdHH31US3A4Bi3HWC0+b0vaRDF1Fbt0CJ43C2KS9ob1612rd5E6oe07dsQVDRyPOi3Xqp0y1V23Cu1H8v6SJTrF+cABE5zmjDYYZsxwZW6oPgO1e3dxSoJDmfF1hbLOTDXekUMjhdmZR44caRTBsa4zo0VA95LvKsDx07VFBaNbiy0R3pZPutTYWPLDR07YJ+pmiJW271LLdPeEP2/S5rxpuSImDP7PmTMn4awxulfeW7RQJw6sXv2BtG/fXm1nzpwV3qOBaEgPU7PSTesiKg/Lykq1gXHx4kUtp7x+IFV8eWWmGt2wPKhMV9qjjz6atK7UFxMao0URdPo4Xpw+opGKYMC7776r9sz4wR7nS0VORThiCU6qYpcu0dedjuCwXD3PIDUUDelh6B5sjcTLw3Pnzuonz0PVFaJvIHrnuStmnWWqg8uExmiR4HgRDRwvokEXAYKDYLBsRzLBCdoz8wfBSdU+2nbcuHERsUsl7XSIThvBueuuj6ng3KCCUxDe83poJS9ygqPfS2umvRrZxb79+2TN6tUqIHUpb5RRtkxgQmO0aHC83vl6wcHxN6bg8EmUUVexS4fo8/aCM8JFWDfcMEejHKNl4hsMutJAt266Wnmmy1sybDKA0aLxg6E4eN7fwUAog6gM3jOBgO4DXqGbaDB11qxZastMNT9xAAfOQCz2vHAqViX2tqTN7zh7pmSnmnY6RJ83L9dav36dvLdokezYsUOOHj2qT6KTPpvRcujZs5fMmDFTx16IboqKi3U9NMprpspbMiyiMVodtPZ5zwdigcMdP368Rhl0K9HyS0TQlnEMohRajF5MiBQStRxZyNJHGsG0k9k1BKRL+j7KCY0/3a3P48x2UU6ibjUjeyHCYfzuwIH90sOJjI9wGvN+W0RjtDqCrX2mCNPCJ8rguRKcPwJCqy9WSz9oO3nyZI1SmPnDA3E4cCKWc+fOxW05enumKBNd+bRpcbJBpgSHyM6nHYzOeJjzsJ73WcmzCKfFQYTDtHginMrKfRpJE934lR8y3cABi2iMVg+tfB+l8IIpBOCee+6JRBrJWn7p2EfbTpgwQW19dJTJVmd02ojuXR/7mBOkUeE9jJbKQhfdLlz4rpa1r3/96/KZz3wm/EtmMKExjDDe8dI9RtcSgoHjb0zB8WnzqoS6iF06BM+7Iac1t2bIRzbuW7J75/f1pGITJNoe6nIMytg///M/h//KDCY0hhGDt99+W50+zhen31iCA9iSPs6jrmmnA+fNNRvpQ176skOXZaJ7R56zP2WFjTGUW2/1zz8lv9++nGLrBacux2BftkxiQmMYCQiKRjqC40UDwaFSe/tEx0gnbaPp8fcPGK+jwZHo3tG4YP/6NDCCZcULDuWssaLiZNhkAMNIAIP3LLPO4D+ztFi2g8F7Fjdk46E4iDdxwNsycYDX7rJ0Ow6BKdZs58+fV9tk9vHSNsFpvvj7x8YaerymgiVfWDUCou85wvDxj3885v1OVE4gWFYGDBigb6rds2ePDvjz9k3SbMoyY0JjGCkQy+m/+OKLOmssFcHwToRKzpRmHA9OgBYoTqCuguPTrqqq0gfz4tkazQPuP/eQF5Fx73n2av369bqgJQTvXaz7nWoDI1pweHfT8ePH5ZVXXol0x1JmiHAaExMaw6gDwYrMQ5BUeqIUVsNNJhjgHY63Z38vODyTw9+8pCqWvU+b6cnYIjCsOMCrCpLZGs0D7iFlgFc9EGng9Ck/3L/ochMsa0yj51XNvoGBeCRqYHhbGjes2ty7d2/9JB2Ei5lmjYmN0RhGmixYsCDSWsQBTJo0SfvFb7jhBq3ciaBvHXuEBodDP/69996r9jiKRN0ctG4ZCMY+Ou1ktkbzgHtI2UE0eBXA6NGj45abYFlhf+43QlKXskZ6QBlrTExoDKOBoBJ7R3DixAkdl/FOP5kTCNoiOPSx4wxo/eJEOEYi0knbaHr8/UNAuHfc/3j3jn296NDAyIb7bV1nhtFA0D2BKNDVwaAvbzKkbx2nwEY3WzwnELSlW4yujzVr1qgzYQyI1it9+/G6ShKlfeHCBR0LMMFpvvj7N2zYMO0C5Q2Y3Ee6uiB4z9mXyIeGSLz7Ha+cNBUW0RhGhoiOUmh13nffferwU2l5vvXWW+o4oqOcVFqu0RGOt001baPp8ZELb5DlHvp7F4vo++0jnEQ2jYkJjWFkGO8E+EQwcASpCgYEnUg6ghNta2QH/h4iOL6hEo/g/Sbqoev1G9/4hjz88MPhPZoGExrDaESIUtjoiz958qS++x+nz2KXqQgOtjiRtWvXqmjgeFKx97Z8knZ93shoNC3FxcX6iYDQjcp95J6zQGo03GcP+z/77LPhv5oGExrDaAKCotFQgoNDIcLhGInAPuiIjOyD++fLDvc9WbmhfDQlJjSG0YTgMObPn69Oo7q6WqZOnRpxHKkIBrZ8Ijhs999/f6R7haXhk4mWkb0Q4dDgYJJJ3759tdzEi3CaGhMaw2gGBAVn3bp1GuEgGjgOBCeZ88AWp0N3CvZEOdgTJZngtHy498B9J8rx5aa5YEJjGM0IWqnBKIWlSoKCkUxwvL0XrK5du9ayN1o2/v4zBsc0eQQnlXKTaUxoDKOZgsNgI0pBcFh6Jh3BYfYRg8hGy8fff9Y6++Uvf6nlpikxoTGMZk5QNNIRHMSGv1sbiGtQYMmzpm7hNybMOENwmhITGsPIEmIJDg4EwUnWLYZtaxQZoBuSayeyQ3AQXF4K1hy6lBqDBx54IPyt6TChMYwsA6fJatEIDkvNswwJzgSnOWPGjFbVWq8L5Bl5R76xJA/5RmRoeZZ5TGgMI0sJCg4tdZwngmPOMzHBfDPBaRxMaAwjy8FxFhUVqfNEcM6cOaNO0zvPgQMHhvc0gpBvvMsHwfF5RlekFxzLt4bDhMYwWhDxnKcRHx/hINbgo8K//Mu/1L+N9DGhMYwWSFBwDh48GP5XI1UQmh/+8Ifhv4x0MaExjBYMrXREx6gbRIFjxowJ/2WkiwmNYRiGkVHahD8NwzAMIyOY0BiGYRgZxYTGMAzDyCgmNIZhGEZGMaExDMMwMooJjWEYhpFRTGgMwzCMjGJCYxiGYWQUExrDMAwjo5jQGIZhGBnFhMYwDMPIKCY0hmEYRkYxoTEMwzAyigmNYRiGkVFMaAzDMIyMYkJjGIZhZBQTGsMwDCOjmNAYhmEYGcWExjAMw8goJjSGYRhGRjGhMQzDMDKKCY1hGIaRUUxoDMMwjIxiQmMYhmFkFBMawzAMI6OY0BiGYRgZxYTGMAzDyCgmNIZhGEZGMaExDMMwMooJjWEYhpFBRP4fbIyk1EkHRlQAAAAASUVORK5CYII=;" vertex="1" parent="1">
                    <mxGeometry x="490" y="140" width="289.1" height="220" as="geometry"/>
                </mxCell>
            </root>
        </mxGraphModel>
    </diagram>
</mxfile>